<?xml version="1.0" encoding="utf-8"?>
<!-- Generator: Adobe Illustrator 17.0.2, SVG Export Plug-In . SVG Version: 6.00 Build 0)  -->
<!DOCTYPE svg PUBLIC "-//W3C//DTD SVG 1.1//EN" "http://www.w3.org/Graphics/SVG/1.1/DTD/svg11.dtd">
<svg version="1.1" id="Layer_1" xmlns="http://www.w3.org/2000/svg" xmlns:xlink="http://www.w3.org/1999/xlink" x="0px" y="0px"
	 width="300px" height="200px" viewBox="0 0 300 200" enable-background="new 0 0 300 200" xml:space="preserve">
<rect x="-1500" y="-420.176" fill="none" stroke="#000000" stroke-miterlimit="10" width="300.065" height="200.043"/>
<rect x="-1199.935" y="-420.176" fill="none" stroke="#000000" stroke-miterlimit="10" width="300.065" height="200.043"/>
<rect x="-899.87" y="-420.176" fill="none" stroke="#000000" stroke-miterlimit="10" width="300.065" height="200.043"/>
<rect x="-599.804" y="-420.176" fill="none" stroke="#000000" stroke-miterlimit="10" width="300.065" height="200.043"/>
<rect x="-299.739" y="-420.176" fill="none" stroke="#000000" stroke-miterlimit="10" width="300.065" height="200.043"/>
<rect x="0.326" y="-420.176" fill="none" stroke="#000000" stroke-miterlimit="10" width="300.065" height="200.043"/>
<rect x="300.391" y="-420.176" fill="none" stroke="#000000" stroke-miterlimit="10" width="300.065" height="200.043"/>
<rect x="600.457" y="-420.176" fill="none" stroke="#000000" stroke-miterlimit="10" width="300.065" height="200.043"/>
<rect x="900.522" y="-420.176" fill="none" stroke="#000000" stroke-miterlimit="10" width="300.065" height="200.043"/>
<path fill="#B94230" d="M1132.5-102.269c-2.25,7.105-5.841,13.24-11.764,17.966c-7.729,6.171-16.382,7.275-25.706,5.088
	c-3.906-0.919-7.404-2.637-10.103-6.45c-0.47,1.419-0.934,2.822-1.388,4.221c-2.549,7.807-4.902,15.294-7.616,22.646
	c-2.405,6.517-2.853,12.755,0.16,19.148c1.945,4.118,0.114,7.688-2.564,10.552c-5.794,6.186-11.873,12.11-18.601,17.311
	c-3.715,2.879-7.698,2.327-10.412-1.44c-1.202-1.667-1.053-3.179,0.274-4.639c1.285-1.414,2.957-2.24,4.587-3.199
	c4.123-2.436,8.137-5.082,12.043-7.858c3.406-2.42,3.612-6.176,3.462-9.938c-0.067-1.734-0.624-2.229-2.312-1.115
	c-4.009,2.652-8.168,5.082-12.481,7.224c-0.841,0.418-1.703,0.836-2.59,1.14c-2.879,0.996-5.242-0.021-6.052-2.565
	c-0.748-2.337,0.335-4.179,3.4-5.056c3.994-1.151,7.647-3.065,11.393-4.762c2.678-1.213,2.709-1.383,0.702-3.38
	c-3.56-3.545-4.902-7.91-4.876-12.812c0.005-1.115,0.098-2.24-0.016-3.344c-0.093-0.882,0.464-1.935,0.464-2.73
	c0-0.325-0.093-0.609-0.356-0.821c-0.836-0.671-2.461-0.361-3.736-0.464c-3.163-0.248-6.321-0.113-9.484,0.083
	c-1.073,0.067-2.033,0.397-2.74,1.218c-6.238,7.281-12.445,14.582-18.709,21.841c-1.274,1.481-1.084,2.988-0.402,4.551
	c1.331,3.055,2.657,6.104,4.143,9.097c1.62,3.256,2.069,6.852,1.997,10.495c-0.041,1.796-1.243,2.797-2.59,3.576
	c-0.872,0.5-1.904,0.758-2.895,0.996c-3.885,0.924-4.473,0.614-5.211-3.235c-1.486-7.75-2.817-15.526-4.324-23.27
	c-0.501-2.559,0.356-4.819,1.352-6.945c2.136-4.556,4.587-8.968,6.904-13.436c0.041-0.078,0.088-0.155,0.114-0.232
	c0.521-1.527,1.687-3.302,0.712-4.618c-0.98-1.321-2.678,0.17-4.066,0.325c-1.171,0.134-2.312,0.614-3.436,1.027
	c-0.991,0.361-1.852,0.666-2.606,0.934c-6.13,2.172-5.041,1.873-6.249,10.129c-1.336,9.117-2.048,18.379-1.063,27.682
	c0.33,3.086-0.046,6.316-1.548,9.246c-0.387,0.754-0.954,1.218-1.615,1.589c-3.633,2.049-7.404,2.539-11.321,0.872
	c-1.966-0.841-2.544-2.193-1.357-4.107c0.408-0.655,0.635-1.532,1.202-1.961c4.432-3.338,3.591-8.261,3.7-12.739
	c0.212-8.545-0.005-17.1,0.072-25.649c0.026-3.297-2.064-5.598-3.565-8.106c-4.453-7.425-8.808-14.881-12.229-22.868
	c-0.913-2.126-1.723-4.277-2.435-6.444c-2.152-6.517-3.467-13.224-4.21-20.092c-0.831-7.662-1.182-15.325-0.284-23.018
	c1.058-9.06,4.566-17.136,9.695-24.566c1.945-2.822,4.252-5.325,6.796-7.647c2.626-2.399,3.307-6.156,5.686-8.772
	c0.227-0.253,0.335-0.614,0.562-0.867c3.545-4.004,3.638-5.49,6.991,0.041c1.006,1.667,1.94,2.214,3.545,0.671
	c2.528-2.441,5.155-4.773,7.74-7.151c0.562-0.516,1.078-1.326,1.93-1.042c0.903,0.305,1.104,1.213,1.135,2.121
	c0.139,3.762,0.495,7.528,0.377,11.285c-0.108,3.22,0.944,5.66,3.473,7.544c1.677,1.259,2.9,2.792,3.607,4.835
	c1.274,3.684,4.52,5.211,7.807,6.558c1.976,0.815,4.055,1.378,6.037,2.183c2.988,1.218,3.338,2.626,1.77,5.345
	c-2.941,5.098-7.766,6.94-13.157,7.931c-2.859,0.526-5.712,1.094-8.539,1.775c-1.238,0.299-2.998,0.454-2.27,2.565
	c0.273,0.789,0.438,1.682,0.846,2.306c0.449,0.691,1.187,1.063,2.699,0.64c11.666-3.251,23.601-3.514,35.505-2.167
	c1.625,0.186,3.23,0.439,4.814,0.764c6.863,1.414,13.353,4.143,19.359,8.06c2.079,1.352,4.205,2.626,6.187,4.128
	c3.442,2.606,4.953,6.166,5.975,9.974c0.33,1.223,0.609,2.477,0.882,3.731c0.795,3.596,2.141,6.775,5.619,8.73
	c4.633,2.601,8.591,0.015,10.459-3.994c2.167-4.639,1.125-9.174-0.66-13.673c-1.703-4.283-4.706-7.724-7.244-11.455
	c-4.819-7.095-5.887-14.824-4.272-23.054c0.975-4.974,2.028-9.948,4.866-14.303c2.936-4.505,6.821-7.688,12.244-8.674
	c2.967-0.537,3.369-0.124,2.564,2.668c-0.444,1.527-0.485,3.06-0.294,4.597c0.232,1.92,0.955,3.323,2.776,4.546
	c12.218,8.189,20.355,19.344,22.76,34.008C1136.107-121.34,1135.477-111.686,1132.5-102.269z"/>
<path fill="#DCA18B" d="M1132.5,97.731c-2.25,7.105-5.841,13.24-11.764,17.966c-7.729,6.171-16.382,7.275-25.706,5.088
	c-3.906-0.919-7.404-2.637-10.103-6.45c-0.47,1.419-0.934,2.822-1.388,4.221c-2.549,7.807-4.902,15.294-7.616,22.646
	c-2.405,6.517-2.853,12.755,0.16,19.148c1.945,4.117,0.114,7.688-2.564,10.552c-5.794,6.186-11.873,12.11-18.601,17.311
	c-3.715,2.879-7.698,2.327-10.412-1.44c-1.202-1.667-1.053-3.179,0.274-4.639c1.285-1.414,2.957-2.24,4.587-3.199
	c4.123-2.436,8.137-5.082,12.043-7.858c3.406-2.42,3.612-6.176,3.462-9.938c-0.067-1.734-0.624-2.229-2.312-1.115
	c-4.009,2.652-8.168,5.082-12.481,7.224c-0.841,0.418-1.703,0.836-2.59,1.14c-2.879,0.996-5.242-0.021-6.052-2.565
	c-0.748-2.337,0.335-4.179,3.4-5.056c3.994-1.151,7.647-3.065,11.393-4.762c2.678-1.213,2.709-1.383,0.702-3.38
	c-3.56-3.545-4.902-7.91-4.876-12.812c0.005-1.115,0.098-2.24-0.016-3.344c-0.093-0.882,0.464-1.935,0.464-2.73
	c0-0.325-0.093-0.609-0.356-0.821c-0.836-0.671-2.461-0.361-3.736-0.464c-3.163-0.248-6.321-0.113-9.484,0.083
	c-1.073,0.067-2.033,0.397-2.74,1.218c-6.238,7.281-12.445,14.582-18.709,21.841c-1.274,1.481-1.084,2.988-0.402,4.551
	c1.331,3.055,2.657,6.104,4.143,9.097c1.62,3.256,2.069,6.852,1.997,10.495c-0.041,1.796-1.243,2.797-2.59,3.576
	c-0.872,0.5-1.904,0.758-2.895,0.996c-3.885,0.924-4.473,0.614-5.211-3.235c-1.486-7.75-2.817-15.526-4.324-23.27
	c-0.501-2.559,0.356-4.819,1.352-6.945c2.136-4.556,4.587-8.968,6.904-13.436c0.041-0.078,0.088-0.155,0.114-0.232
	c0.521-1.527,1.687-3.302,0.712-4.618c-0.98-1.321-2.678,0.17-4.066,0.325c-1.171,0.134-2.312,0.614-3.436,1.027
	c-0.991,0.361-1.852,0.666-2.606,0.934c-6.13,2.172-5.041,1.873-6.249,10.129c-1.336,9.117-2.048,18.379-1.063,27.682
	c0.33,3.086-0.046,6.316-1.548,9.246c-0.387,0.754-0.954,1.218-1.615,1.589c-3.633,2.049-7.404,2.539-11.321,0.872
	c-1.966-0.841-2.544-2.193-1.357-4.107c0.408-0.655,0.635-1.532,1.202-1.961c4.432-3.339,3.591-8.261,3.7-12.739
	c0.212-8.545-0.005-17.1,0.072-25.649c0.026-3.297-2.064-5.598-3.565-8.106c-4.453-7.425-8.808-14.881-12.229-22.868
	c-0.913-2.126-1.723-4.277-2.435-6.444c-2.152-6.517-3.467-13.224-4.21-20.092c-0.831-7.662-1.182-15.325-0.284-23.018
	c1.058-9.06,4.566-17.136,9.695-24.566c1.945-2.822,4.252-5.325,6.796-7.647c2.626-2.399,3.307-6.156,5.686-8.772
	c0.227-0.253,0.335-0.614,0.562-0.867c3.545-4.004,3.638-5.49,6.991,0.041c1.006,1.667,1.94,2.214,3.545,0.671
	c2.528-2.441,5.155-4.773,7.74-7.151c0.562-0.516,1.078-1.326,1.93-1.042c0.903,0.305,1.104,1.213,1.135,2.121
	c0.139,3.762,0.495,7.528,0.377,11.285c-0.108,3.22,0.944,5.66,3.473,7.544c1.677,1.259,2.9,2.792,3.607,4.835
	c1.274,3.684,4.52,5.211,7.807,6.558c1.976,0.815,4.055,1.378,6.037,2.183c2.988,1.218,3.338,2.626,1.77,5.345
	c-2.941,5.098-7.766,6.94-13.157,7.931c-2.859,0.526-5.712,1.094-8.539,1.775c-1.238,0.299-2.998,0.454-2.27,2.565
	c0.273,0.789,0.438,1.682,0.846,2.306c0.449,0.691,1.187,1.063,2.699,0.64c11.666-3.251,23.601-3.514,35.505-2.167
	c1.625,0.186,3.23,0.439,4.814,0.764c6.863,1.414,13.353,4.143,19.359,8.06c2.079,1.352,4.205,2.626,6.187,4.128
	c3.442,2.606,4.953,6.166,5.975,9.974c0.33,1.223,0.609,2.477,0.882,3.731c0.795,3.596,2.141,6.775,5.619,8.73
	c4.633,2.601,8.591,0.015,10.459-3.994c2.167-4.639,1.125-9.174-0.66-13.673c-1.703-4.283-4.706-7.724-7.244-11.455
	c-4.819-7.095-5.887-14.824-4.272-23.054c0.975-4.974,2.028-9.948,4.866-14.303c2.936-4.505,6.821-7.688,12.244-8.674
	c2.967-0.537,3.369-0.124,2.564,2.668c-0.444,1.527-0.485,3.06-0.294,4.597c0.232,1.92,0.955,3.323,2.776,4.546
	c12.218,8.189,20.355,19.344,22.76,34.008C1136.107,78.66,1135.477,88.314,1132.5,97.731z"/>
<g>
	<path fill="#3E8394" d="M-476.104-60.49c-2.888-0.316-5.771-0.165-8.652,0.099c-0.806,0.051-1.612,0.155-2.415-0.027
		c-5.615,0.049-11.206-0.563-16.851-0.252c-2.828,0.156-5.938,0.396-8.723-1.103c-0.722-0.389-1.559-0.427-1.478-1.511
		c0.071-0.951,0.462-1.726,1.372-2.085c0.509-0.2,1.157-0.44,1.623-0.29c2.793,0.898,3.202-0.922,3.732-2.952
		c1.599-6.119,3.109-12.246,5.187-18.254c1.884-5.448,3.809-10.897,5.992-16.203c3.405-8.274,6.647-16.63,10.79-24.609
		c2.137-4.116,4.107-8.336,6.408-12.367c3.35-5.868,7.506-11.145,12.107-16.1c4.86-5.234,10.344-9.75,16.091-13.908
		c1.97-1.425,4.159-2.686,6.303-3.922c1.732-0.999,3.11-1.952,2.296-4.28c-0.198-0.567-0.002-1.271,0.013-1.911
		c-0.312-1.279-0.297-2.558-0.011-3.838c-0.003-0.976-0.006-1.952-0.009-2.928c-0.172-0.804-0.447-1.615,0.153-2.369
		c2.263-1.199,2.951-0.927,3.606,1.424c0.192,0.689,0.387,1.377,0.58,2.065c0.484,0.4,0.372,0.846,0.101,1.305
		c0.563,4.756,1.392,9.499,1.631,14.272c0.406,8.129,3.781,15.332,6.413,22.797c1.46,4.141,3.18,8.177,4.427,12.415
		c1.532,5.204,3.787,10.191,5.578,15.324c2.501,7.167,5.138,14.288,7.753,21.409c2.622,7.141,4.901,14.395,7.504,21.54
		c2.326,6.383,4.884,12.699,6.693,19.267c0.445,1.615,1.408,3.015,1.747,4.711c0.294,1.473,0.248,1.953-1.468,2.029
		c-7.205,0.32-14.404-0.035-21.605,0.02c-5.258,0.04-10.515,0.138-15.773,0.166c-2.632,0.014-5.11-1.245-7.841-0.805
		c-2.098,0.338-3.936,3.193-3.048,5.176c0.273,0.611,0.759,0.46,1.214,0.45c1.927-0.041,3.854-0.095,5.78-0.144
		c0.139-0.234,0.255-0.235,0.344,0.034c2.256,0.846,4.604,0.235,6.901,0.431c0.801-0.417,1.606-0.369,2.414-0.024
		c2.081,0.115,4.163,0.333,6.243,0.312c1.653-0.017,2.196,0.765,1.947,2.2c-0.254,1.465,0.426,1.802,1.691,1.779
		c7.547-0.133,8.903,6.435,6.521,11.968c-2.763,6.419-8,9.537-14.942,9.801c-0.748,0.028-1.395,0.064-1.963,0.657
		c-5.857,6.116-13.268,8.233-21.483,8.668c-6.575,0.349-12.921-0.185-19.19-2.358c-7.082-2.455-12.116-7-15.44-13.633
		c-2.965-5.918-3.618-12.205-3.282-18.696c0.068-1.318,0.461-1.881,1.853-1.785c1.507,0.103,3.049,0.296,4.522-0.296l0.018-0.004
		c3.104,0.456,6.201,0.526,9.345,0.282c2.53-0.196,5.105-0.014,7.647,0.181c4.241,0.327,8.487,0.164,12.727,0.318
		c1.675,0.061,2.095-0.558,2.007-2.071c-0.088-1.518,0.003-3.047,0.016-4.572c-0.297-1.127-0.374-2.252,0.039-3.37
		c0.127-4.362,0.128-4.234-4.223-4.206c-6.473,0.041-12.946-0.119-19.419-0.193C-475.095-60.4-475.601-60.397-476.104-60.49z"/>
	<path fill="#3E8394" d="M-396.254-149.189c-6.008,0.573-12.042,0.205-18.059,0.487c-2.884,0.135-5.782,0.001-8.662,0.175
		c-1.542,0.093-1.419-0.539-0.984-1.513c0.776-1.736,2.271-2.72,3.937-3.356c1.234-0.471,1.92-1.184,2.375-2.417
		c1.845-5,5.912-6.624,10.543-4.093c1.454,0.795,1.723,0.076,2.298-0.897c2.47-4.175,6.816-5.613,11.225-3.804
		c1.171,0.48,2.328,1.212,2.532,2.396c0.325,1.889,1.3,1.641,2.694,1.489c1.989-0.218,4.016-0.152,6.025-0.102
		c0.784,0.019,1.685,0.129,2.321,0.531c2.671,1.691,4.9,3.953,8.15,4.897c1.594,0.463,1.858,2.84,2.007,4.647
		c0.085,1.035-0.546,1.156-1.368,1.172c-1.033,0.02-2.095-0.225-3.093,0.25c-0.424,0.464-0.866,0.412-1.319,0.046
		c-0.319,0.006-0.639,0.012-0.958,0.019c-0.482,0.355-0.964,0.373-1.446,0c-5.47,0.013-10.94,0.026-16.41,0.039
		c-1.921-0.569-3.845-0.126-5.767-0.216C-398.89-149.499-397.567-149.754-396.254-149.189z"/>
	<path fill="#3E8394" d="M-509.758-131.227c3.186-0.125,5.439,1.004,5.928,4.455c0.099,0.702,0.565,0.887,1.148,0.992
		c0.755,0.136,1.311,0.581,1.707,1.209c0.572,0.908,0.901,1.934,0.555,2.958c-0.383,1.133-1.534,0.513-2.316,0.758
		c-0.362,0.114-0.785,0.034-1.18,0.042c-3.166-0.325-6.332-0.303-9.498-0.009c-3.829-0.457-7.672-0.163-11.508-0.229
		c-0.956-0.016-1.914-0.065-2.864-0.161c-0.61-0.062-1.455,0.34-1.784-0.295c-0.41-0.793,0.256-1.532,0.649-2.21
		c1.305-2.252,3.524-1.71,5.546-1.755c0.505-2.979,2.378-4.509,5.315-3.87c1.696,0.369,2.768,0.054,3.971-1.128
		C-512.931-131.608-511.418-132.231-509.758-131.227z"/>
</g>
<path fill="#216568" d="M-947.936-13.689c-0.625-1.385,0.212-3.742-1.933-4.043c-1.585-0.23-1.88-1.037-2.222-2.18
	c-1.75-5.822-3.807-11.574-5.162-17.484c-0.813-3.548-2.457-4.726-5.799-4.131c-2.122,0.377-3.076-0.513-3.642-2.628
	c-1.52-5.681-3.312-11.291-5.015-16.919c-1.332-4.39-1.349-4.52-5.816-4.337c-0.247,0.012-0.477,0.012-0.689,0
	c-1.68-0.088-2.404-0.854-2.905-2.705c-1.544-5.675-3.624-11.208-4.979-16.925c-0.813-3.441-2.34-4.82-5.764-4.178
	c-2.092,0.395-3.1-0.448-3.677-2.593c-1.52-5.675-3.518-11.232-4.932-16.931c-0.819-3.294-2.21-4.938-5.728-4.208
	c-2.251,0.466-3.206-0.566-3.789-2.811c-1.402-5.404-3.159-10.719-4.779-16.07c-1.461-4.803-1.461-4.856-6.571-4.968
	c-1.455-0.029-2.174-0.265-1.945-1.956c0.295-2.133,0.371-4.302,0.513-6.453c0.065-0.937,0.13-1.862,1.402-1.756
	c2.799,0.23,2.953-1.35,2.522-3.483c-0.265-1.344-0.371-2.722-0.513-4.09c-0.448-4.267-0.448-4.343-4.762-4.166
	c-1.874,0.077-2.746-0.312-3.023-2.422c-0.607-4.667-2.127-9.264-2.286-13.925c-0.23-6.877-3.506-10.124-10.071-10.766
	c-1.09-0.106-2.51-0.247-2.882-1.644c-0.66-2.499-2.469-2.587-4.537-2.493c-2.057,0.1-4.131,0.118-6.188-0.006
	c-2.186-0.13-4.101-0.071-4.773,2.593c-0.283,1.114-1.432,1.237-2.357,1.503c-2.263,0.654-4.514,1.343-6.807,1.874
	c-1.526,0.354-2.216,1.049-2.481,2.705c-1.055,6.683-2.292,13.336-3.512,19.995c-0.23,1.261-0.188,2.557-2.18,2.887
	c-5.251,0.872-5.233,1.014-5.858,6.3c-0.065,0.583-0.094,1.173-0.165,1.762c-0.177,1.55-1.09,3.424,1.815,3.442
	c0.99,0,0.695,1.002,0.689,1.632c-0.012,1.473-0.077,2.946-0.118,4.42c-0.106,4.007-0.112,4.149-4.172,3.954
	c-2.322-0.106-3.447,0.46-4.072,2.905c-1.426,5.604-3.188,11.126-4.956,16.63c-1.733,5.404-0.342,4.408-5.816,4.361
	c-2.186-0.018-3.041,0.707-3.607,2.764c-1.497,5.481-3.259,10.896-4.897,16.335c-1.402,4.65-1.402,4.767-6.164,4.626
	c-1.962-0.059-2.728,0.619-3.235,2.416c-1.114,3.96-2.398,7.867-3.559,11.81c-0.525,1.791-1.02,3.595-1.468,5.404
	c-0.819,3.341-2.275,4.88-5.746,4.178c-2.098-0.418-3.088,0.483-3.666,2.587c-0.796,2.905-1.662,5.787-2.551,8.669
	c-0.819,2.646-1.65,5.292-2.458,7.95c-1.42,4.673-1.414,4.773-6.152,4.685c-1.933-0.035-2.675,0.495-2.994,2.505
	c-1.002,6.294-2.316,12.534-3.43,18.81c-0.295,1.668-0.784,2.787-2.77,2.428c-1.279-0.224-1.774,0.424-1.703,1.674
	c0.059,0.978,0.106,1.974-0.006,2.946c-0.236,1.98,0.625,2.451,2.51,2.446c24.521-0.071,49.024,1.031,73.55,0.766
	c20.719-0.218,41.439-0.041,62.159-0.041v-0.76c21.303,0,42.606-0.041,63.915,0.047C-947.653-10.742-946.916-11.414-947.936-13.689z
	 M-1055.3-146.87c-0.059-0.483-0.012-0.984-0.012-1.473c0-2.357,0.13-4.72-0.041-7.066c-0.142-1.915,0.625-2.381,2.357-2.222
	c2.611,0.242,5.958-1.055,7.667,0.524c1.603,1.491,0.418,4.838,0.489,7.366c0.083,2.846-0.077,5.698,0.041,8.539
	c0.065,1.621-0.348,2.322-2.086,2.222c-2.64-0.147-5.97,0.849-7.743-0.412C-1056.572-140.771-1055.005-144.301-1055.3-146.87z"/>
<g>
	<path fill="#E8BC31" d="M-684.418-38.946c-3.771,6.279-7.819,12.023-13.488,16.68c-2.395,1.974-4.833,2.533-7.705,1.81
		c-11.558-2.898-23.386-3.809-35.202-4.299c-12.236-0.503-24.479,0-36.672,1.691c-5.776,0.804-11.426,2.049-17.114,3.174
		c-2.577,0.509-4.537-1.452-6.027-2.835c-6.178-5.744-12.834-11.137-17.045-18.678c-5.373-9.622-8.063-20.023-9.597-30.903
		c-0.855-6.059,0.666-11.791,0.911-17.673c0.101-2.363,0.321-4.783,0.509-7.171c0.635-7.913,5.116-14.248,8.258-21.148
		c4.33-9.503,11.413-16.328,20.181-21.689c13.098-8.001,23.574-11.225,38.401-11.539c14.939-0.566,29.4,1.584,43.039,7.906
		c13.852,6.423,25.504,15.58,32.895,29.174c4.971,9.151,7.9,19.156,8.409,29.614C-673.884-68.736-675.839-53.225-684.418-38.946z"/>
	<path fill="#E8BC31" d="M-721.279-149.369c11.215-11.653,22.099-22.962,32.983-34.271c0.035,3.433-1.499,6.338-2.346,9.413
		c-2.493,9.057-4.515,18.262-7.998,27.03c-0.809,2.035-0.495,4.324-1.468,6.377c-0.631,1.333-1.028,1.783-2.466,0.913
		C-708.377-143.418-714.273-146.769-721.279-149.369z"/>
	<path fill="#E8BC31" d="M-813.627-185.488c1.942,2.306,3.923,4.581,5.821,6.924c7.311,9.024,16.128,16.624,23.848,25.265
		c1.583,1.772,1.301,2.466-0.814,2.965c-5.808,1.37-10.612,4.695-15.328,8.098c-2.221,1.603-2.962,0.932-3.401-1.383
		c-1.785-9.426-5.025-18.462-7.756-27.619c-1.306-4.38-1.476-9.016-3.633-13.143C-814.469-184.751-814.048-185.119-813.627-185.488z
		"/>
	<path fill="#E8BC31" d="M-730.492-189.998c0.342,3.72,0.651,7.306,1.005,10.888c0.841,8.506,1.464,17.036,2.818,25.484
		c0.295,1.843,0.125,2.587-2.211,1.992c-5.551-1.414-11.164-2.652-16.944-2.84c-1.068-0.035-2.532,0.354-3.081-0.923
		c-0.446-1.038,0.52-1.961,1.074-2.813c3.929-6.039,6.64-12.716,9.993-19.056c1.801-3.405,3.309-6.963,5.042-10.405
		C-732.357-188.543-731.849-189.513-730.492-189.998z"/>
	<path fill="#E8BC31" d="M-636.47-117.329c-11.695,7.436-23.009,15.23-34.537,22.695c-0.825,0.534-1.989,1.541-2.192-0.404
		c-0.596-5.721-3.532-10.664-5.191-16.028c-0.476-1.541-0.699-2.122,1.304-2.309c6.621-0.619,13.205-1.702,19.834-2.17
		C-650.335-116.033-643.476-117.139-636.47-117.329z"/>
	<path fill="#E8BC31" d="M-863.203-40.588c10.719-7.014,21.115-13.938,31.494-20.886c1.638-1.097,2.548-1.537,2.927,1.099
		c0.704,4.894,3.179,9.251,4.694,13.909c0.391,1.204,0.743,1.858-0.978,2.04c-11.672,1.238-23.334,2.559-35.003,3.824
		C-861.102-40.491-862.158-40.588-863.203-40.588z"/>
	<path fill="#E8BC31" d="M-837.746-9.959c6.153-9.414,11.47-19.058,17.545-28.885c4.28,6.151,9.259,11.361,15.039,16.405
		C-815.947-17.336-826.935-13.94-837.746-9.959z"/>
	<path fill="#E8BC31" d="M-664.022-147.934c-6.115,9.459-11.573,19.108-17.636,28.967c-4.13-6.365-9.464-11.254-14.846-16.535
		C-685.823-140.54-674.868-143.98-664.022-147.934z"/>
	<path fill="#E8BC31" d="M-672.715-62.716c9.772,7.085,18.247,14.371,26.919,21.236c-7.587,0-15.007,0.019-22.427-0.009
		c-3.028-0.011-6.055-0.168-9.083-0.173c-1.539-0.003-1.816-0.494-1.113-1.848C-675.424-49.275-672.719-55.143-672.715-62.716z"/>
	<path fill="#E8BC31" d="M-829.194-95.232c-9.719-7.046-18.122-14.33-26.701-21.074c7.968,0,15.9-0.098,23.827,0.057
		c2.509,0.049,5.005,0.231,7.511-0.025c1.307-0.134,2.138,0.088,1.276,1.683C-826.424-108.776-829.001-102.766-829.194-95.232z"/>
	<path fill="#E8BC31" d="M-770.923-183.192c3.23,5.719,5.96,11.102,9.225,16.137c2.167,3.343,3.782,6.981,6.046,10.249
		c0.834,1.204,0.575,1.841-1.041,1.873c-6.279,0.124-12.496,0.882-18.637,2.18c-1.42,0.3-1.361-0.291-1.192-1.287
		c1.131-6.678,2.18-13.37,3.394-20.033C-772.592-177.009-771.733-179.885-770.923-183.192z"/>
	<path fill="#E8BC31" d="M-829.625-69.574c-4.35-0.645-6.955-3.159-10.202-4.302c-4.228-1.489-8.282-3.474-12.4-5.27
		c-0.541-0.236-1.31-0.367-1.29-1.164c0.014-0.589,0.582-0.811,1.06-1.009c7.408-3.082,14.818-6.159,22.706-9.435
		C-829.667-83.595-832.494-76.795-829.625-69.574z"/>
	<path fill="#E8BC31" d="M-672.092-67.128c0.388-3.044-0.045-5.699,0.977-8.512c1.167-3.21,0.045-6.771-0.379-10.138
		c-0.28-2.223-0.041-3.006,2.209-1.827c6.381,3.343,12.997,6.165,19.681,8.836c0.567,0.226,1.243,0.41,1.302,1.172
		c0.05,0.646-0.5,0.861-0.974,1.056C-656.769-73.443-664.265-70.355-672.092-67.128z"/>
	<path fill="#E8BC31" d="M-831.426-143.81c7.745,2.105,14.763,3.982,21.759,5.942c1.38,0.387,2.414,1.193,0.65,2.501
		c-4.984,3.694-7.952,8.939-11.037,14.255C-824.733-128.008-827.207-135.923-831.426-143.81z"/>
	<path fill="#E8BC31" d="M-681.756-36.768c4.598,7.055,7.294,14.723,11.117,22.34c-3.729-0.281-6.764-1.641-9.919-2.464
		c-3.845-1.002-7.698-1.976-11.516-3.074c-1.589-0.457-2.471-1.265-0.578-2.68C-687.782-26.286-684.764-31.383-681.756-36.768z"/>
</g>
<g>
	<path fill="#F4DFAB" d="M-684.418,161.054c-3.771,6.279-7.819,12.023-13.488,16.68c-2.395,1.974-4.833,2.533-7.705,1.81
		c-11.558-2.898-23.386-3.809-35.202-4.299c-12.236-0.503-24.479,0-36.672,1.691c-5.776,0.804-11.426,2.049-17.114,3.174
		c-2.577,0.509-4.537-1.452-6.027-2.835c-6.178-5.744-12.834-11.137-17.045-18.678c-5.373-9.622-8.063-20.023-9.597-30.903
		c-0.855-6.059,0.666-11.791,0.911-17.673c0.101-2.363,0.321-4.783,0.509-7.171c0.635-7.913,5.116-14.248,8.258-21.148
		c4.33-9.503,11.413-16.328,20.181-21.689c13.098-8.001,23.574-11.225,38.401-11.539c14.939-0.566,29.4,1.584,43.039,7.906
		c13.852,6.423,25.504,15.58,32.895,29.174c4.971,9.151,7.9,19.156,8.409,29.614C-673.884,131.264-675.839,146.775-684.418,161.054z
		"/>
	<path fill="#F4DFAB" d="M-721.279,50.631c11.215-11.653,22.099-22.962,32.983-34.271c0.035,3.433-1.499,6.338-2.346,9.413
		c-2.493,9.057-4.515,18.262-7.998,27.03c-0.809,2.035-0.495,4.324-1.468,6.377c-0.631,1.333-1.028,1.783-2.466,0.913
		C-708.377,56.582-714.273,53.231-721.279,50.631z"/>
	<path fill="#F4DFAB" d="M-813.627,14.512c1.942,2.306,3.923,4.581,5.821,6.924c7.311,9.024,16.128,16.624,23.848,25.265
		c1.583,1.772,1.301,2.466-0.814,2.965c-5.808,1.37-10.612,4.695-15.328,8.098c-2.221,1.603-2.962,0.932-3.401-1.383
		c-1.785-9.426-5.025-18.462-7.756-27.619c-1.306-4.38-1.476-9.016-3.633-13.143C-814.469,15.249-814.048,14.881-813.627,14.512z"/>
	<path fill="#F4DFAB" d="M-730.492,10.002c0.342,3.72,0.651,7.306,1.005,10.888c0.841,8.506,1.464,17.036,2.818,25.484
		c0.295,1.843,0.125,2.587-2.211,1.992c-5.551-1.414-11.164-2.652-16.944-2.84c-1.068-0.035-2.532,0.354-3.081-0.923
		c-0.446-1.038,0.52-1.961,1.074-2.813c3.929-6.039,6.64-12.716,9.993-19.056c1.801-3.405,3.309-6.963,5.042-10.405
		C-732.357,11.457-731.849,10.487-730.492,10.002z"/>
	<path fill="#F4DFAB" d="M-636.47,82.671c-11.695,7.436-23.009,15.23-34.537,22.695c-0.825,0.534-1.989,1.541-2.192-0.404
		c-0.596-5.721-3.532-10.664-5.191-16.028c-0.476-1.541-0.699-2.122,1.304-2.309c6.621-0.619,13.205-1.702,19.834-2.17
		C-650.335,83.967-643.476,82.861-636.47,82.671z"/>
	<path fill="#F4DFAB" d="M-863.203,159.412c10.719-7.014,21.115-13.938,31.494-20.886c1.638-1.097,2.548-1.537,2.927,1.099
		c0.704,4.894,3.179,9.251,4.694,13.909c0.391,1.204,0.743,1.858-0.978,2.04c-11.672,1.238-23.334,2.559-35.003,3.824
		C-861.102,159.509-862.158,159.412-863.203,159.412z"/>
	<path fill="#F4DFAB" d="M-837.746,190.041c6.153-9.414,11.47-19.058,17.545-28.885c4.28,6.151,9.259,11.361,15.039,16.405
		C-815.947,182.664-826.935,186.06-837.746,190.041z"/>
	<path fill="#F4DFAB" d="M-664.022,52.066c-6.115,9.459-11.573,19.108-17.636,28.967c-4.13-6.365-9.464-11.254-14.846-16.535
		C-685.823,59.46-674.868,56.02-664.022,52.066z"/>
	<path fill="#F4DFAB" d="M-672.715,137.284c9.772,7.085,18.247,14.371,26.919,21.236c-7.587,0-15.007,0.019-22.427-0.009
		c-3.028-0.011-6.055-0.168-9.083-0.173c-1.539-0.003-1.816-0.494-1.113-1.848C-675.424,150.725-672.719,144.857-672.715,137.284z"
		/>
	<path fill="#F4DFAB" d="M-829.194,104.768c-9.719-7.046-18.122-14.33-26.701-21.074c7.968,0,15.9-0.098,23.827,0.057
		c2.509,0.049,5.005,0.231,7.511-0.025c1.307-0.134,2.138,0.088,1.276,1.683C-826.424,91.224-829.001,97.234-829.194,104.768z"/>
	<path fill="#F4DFAB" d="M-770.923,16.808c3.23,5.719,5.96,11.102,9.225,16.137c2.167,3.343,3.782,6.981,6.046,10.249
		c0.834,1.204,0.575,1.841-1.041,1.873c-6.279,0.124-12.496,0.882-18.637,2.18c-1.42,0.3-1.361-0.291-1.192-1.287
		c1.131-6.678,2.18-13.37,3.394-20.033C-772.592,22.991-771.733,20.115-770.923,16.808z"/>
	<path fill="#F4DFAB" d="M-829.625,130.426c-4.35-0.645-6.955-3.159-10.202-4.302c-4.228-1.489-8.282-3.474-12.4-5.27
		c-0.541-0.236-1.31-0.367-1.29-1.164c0.014-0.589,0.582-0.811,1.06-1.009c7.408-3.082,14.818-6.159,22.706-9.435
		C-829.667,116.405-832.494,123.205-829.625,130.426z"/>
	<path fill="#F4DFAB" d="M-672.092,132.872c0.388-3.044-0.045-5.699,0.977-8.512c1.167-3.21,0.045-6.771-0.379-10.138
		c-0.28-2.223-0.041-3.006,2.209-1.827c6.381,3.343,12.997,6.165,19.681,8.836c0.567,0.226,1.243,0.41,1.302,1.172
		c0.05,0.646-0.5,0.861-0.974,1.056C-656.769,126.557-664.265,129.645-672.092,132.872z"/>
	<path fill="#F4DFAB" d="M-831.426,56.19c7.745,2.105,14.763,3.982,21.759,5.942c1.38,0.387,2.414,1.193,0.65,2.501
		c-4.984,3.694-7.952,8.939-11.037,14.255C-824.733,71.992-827.207,64.077-831.426,56.19z"/>
	<path fill="#F4DFAB" d="M-681.756,163.232c4.598,7.055,7.294,14.723,11.117,22.34c-3.729-0.281-6.764-1.641-9.919-2.464
		c-3.845-1.002-7.698-1.976-11.516-3.074c-1.589-0.457-2.471-1.265-0.578-2.68C-687.782,173.714-684.764,168.617-681.756,163.232z"
		/>
</g>
<path fill="#83B6BF" d="M164.31-133.008c3.817,1.195,7.116,3.341,10.367,5.593c9.181,6.359,19.552,7.388,30.294,6.677
	c0.557-0.037,1.096-0.341,2.28-0.729c-6.357-2.611-11.972-5.422-17.219-8.909c-7.501-4.985-13.986-10.93-18.163-19.089
	c-1.51-2.949-2.243-6.098-2.698-9.338c-0.223-1.589,0.181-2.354,1.885-1.413c0.517,0.285,1.07,0.51,1.622,0.722
	c3.42,1.315,3.835,0.967,3.811-2.691c-0.011-1.666,0.204-3.355,0.524-4.993c0.208-1.065-0.1-2.666,1.463-2.905
	c1.362-0.208,2.765,0.148,3.872,1.117c0.846,0.74,1.414,1.719,1.534,2.81c1.072,9.698,6.017,17.366,12.583,24.198
	c0.621-0.126,0.044-0.421,0.089-0.628c-1.757-3.641-4.004-7.01-5.573-10.772c-2.95-7.073-3.565-14.328-2.408-21.813
	c0.423-2.736,0.911-5.461,0.768-8.251c-0.072-1.415,0.244-2.752,0.998-3.967c2.182-3.518,4.884-3.475,6.839,0.108
	c1.919,3.518,1.919,3.517,5.278,1.43c0.42-0.261,0.842-0.52,1.273-0.761c1.513-0.843,2.98-2.482,4.831-1.347
	c1.822,1.118,0.883,3.021,0.595,4.62c-0.293,1.632,0.251,2.222,1.908,1.905c1.357-0.26,2.742-0.366,4.114-0.55
	c1.63-0.218,3.358-0.305,4.106,1.464c0.748,1.769-0.189,3.303-1.539,4.45c-2.199,1.868-4.81,3.101-7.304,4.514
	c-3.912,2.217-6.744,5.251-8.231,9.678c-2.031,6.046-0.937,11.341,3.105,16.049c4.571,5.324,9.25,10.559,13.998,15.726
	c2.436,2.651,5.572,3.238,8.927,1.981c3.156-1.183,6.144-2.719,8.801-4.843c2.415-1.931,5.057-3.483,8.043-4.341
	c2.624-0.754,3.484-0.123,3.645,2.52c0.054,0.888,0.063,1.779,0.075,2.669c0.016,1.225,0.119,2.162,1.846,1.644
	c1.905-0.571,2.416,0.867,2.643,2.317c0.517,3.299-1.66,5.976-5.648,6.714c-4.485,0.829-9.045,0.867-13.594,0.959
	c-1.61,0.032-4.006-0.591-4.459,1.14c-0.418,1.595,2.011,2.059,3.33,2.798c2.274,1.275,4.005,2.793,5.3,5.281
	c1.494,2.87,4.761,4.32,7.319,6.311c1.794,1.396,3.663,2.699,5.423,4.136c2.908,2.376,3.175,5.099,0.991,8.991
	c-1.794,3.196-4.85,4.621-8,3.109c-4.422-2.123-9.109-3.155-13.795-4.343c-4.128-1.047-7.799-0.615-11.057,2.293
	c-0.805,0.719-1.68,1.438-2.648,1.884c-6.649,3.061-11.304,8.952-17.86,12.267c-4.843,2.448-9.759,3.536-15.016,3.988
	c-1.949,0.168-4.882-0.86-5.564,1.489c-0.641,2.208,1.649,4.064,3.327,5.518c3.953,3.425,8.196,6.497,12.155,9.932
	c2.881,2.499,4.301,5.418,4.831,9.143c0.626,4.396,1.14,8.81,1.841,13.189c0.603,3.763,2.804,6.923,4.806,10.103
	c2.504,3.977,2.117,4.997-2.336,6.064c-5.257,1.26-6.083,1.041-6.295-4.437c-0.432-11.157-6.54-19.846-11.667-29.009
	c-0.446-0.798-1.15-1.332-1.985-1.718c-7.173-3.316-14.122-7.048-20.642-11.524c-1.784-1.225-2.313-0.192-3.11,1.127
	c-4.92,8.146-7.486,17.113-9.358,26.335c-0.864,4.256-1.475,8.583-3.116,12.64c-0.736,1.819,0.31,2.982,1.218,4.289
	c1.665,2.398,1.328,3.171-1.526,3.732c-0.194,0.038-0.389,0.075-0.584,0.104c-6.96,1.025-7.394,0.606-6.173-6.112
	c2.474-13.605,4.213-27.294,4.868-41.115c0.253-5.347,0.232-5.455-5.263-4.728c-3.524,0.466-6.984,1.196-10.407,2.252
	c-4.573,1.411-9.225,0.743-13.732-0.525c-4.466-1.256-8.885-2.723-13.091-4.708c-1.48-0.699-2.408-0.683-3.53,0.701
	c-3.61,4.451-7.552,8.539-12.387,11.771c-3.2,2.139-3.641,4.657-1.624,7.955c4.788,7.83,9.688,15.595,15.326,22.86
	c1.979,2.55,3.336,5.405,3.649,8.617c0.334,3.438-1.693,4.795-4.953,3.71c-3.46-1.151-5.855-3.004-6.245-6.959
	c-0.551-5.589-4.989-8.766-8.271-12.616c-4.742-5.563-9.411-11.172-13.736-17.075c-1.794-2.448-1.569-4.463,0.256-6.645
	c1.467-1.754,2.672-3.689,3.214-5.948c0.106-0.442,0.117-1.061-0.117-1.394c-0.353-0.502-0.958-0.155-1.283,0.15
	c-6.256,5.868-14.197,10.412-16.077,19.787c-1.066,5.319,0.06,10.628,0.496,15.928c0.259,3.15,0.708,6.284,0.977,9.433
	c0.148,1.735,0.336,3.191,2.289,4.042c1.381,0.602,2.829,1.697,2.472,3.645c-0.363,1.981-2.225,1.614-3.545,2.076
	c-0.184,0.065-0.387,0.082-0.582,0.109c-7.33,1.025-7.235,1.011-8.296-6.231c-1.879-12.815-2.714-25.675-2.437-38.632
	c0.068-3.171,0.85-5.809,2.807-8.169c3.083-3.719,4.62-8.261,6.63-12.534c2.119-4.504,0.39-9.164-0.086-13.714
	c-0.74-7.079-1.733-14.125-0.437-21.234c0.188-1.031-0.011-1.691-1.232-1.854c-2.307-0.308-1.922-2.007-1.399-3.381
	c0.9-2.362,2.414-4.694,4.705-5.521c6.329-2.284,12.262-5.464,18.567-7.772c7.145-2.616,14.214-1.08,21.288,0.328
	c9.967,1.982,19.887,4.635,30.167,3.701c7.655-0.696,15.293-1.725,22.793-3.523c0.664-0.159,1.326-0.423,1.918-0.762
	c2.843-1.627,5.764-3.008,9.102-3.232C162.891-133.573,163.597-133.507,164.31-133.008z"/>
<path fill="#ADD2E0" d="M164.31,66.992c3.817,1.195,7.116,3.341,10.367,5.593c9.181,6.359,19.552,7.388,30.294,6.677
	c0.557-0.037,1.096-0.341,2.28-0.729c-6.357-2.611-11.972-5.422-17.219-8.909c-7.501-4.985-13.986-10.93-18.163-19.089
	c-1.51-2.949-2.243-6.098-2.698-9.338c-0.223-1.589,0.181-2.354,1.885-1.413c0.517,0.285,1.07,0.51,1.622,0.722
	c3.42,1.315,3.835,0.967,3.811-2.691c-0.011-1.666,0.204-3.355,0.524-4.993c0.208-1.065-0.1-2.666,1.463-2.905
	c1.362-0.208,2.765,0.148,3.872,1.117c0.846,0.74,1.414,1.719,1.534,2.81c1.072,9.698,6.017,17.366,12.583,24.198
	c0.621-0.126,0.044-0.421,0.089-0.628c-1.757-3.641-4.004-7.01-5.573-10.772c-2.95-7.073-3.565-14.328-2.408-21.813
	c0.423-2.736,0.911-5.461,0.768-8.251c-0.072-1.415,0.244-2.752,0.998-3.967c2.182-3.518,4.884-3.475,6.839,0.108
	c1.919,3.518,1.919,3.517,5.278,1.43c0.42-0.261,0.842-0.52,1.273-0.761c1.513-0.843,2.98-2.482,4.831-1.347
	c1.822,1.118,0.883,3.021,0.595,4.62c-0.293,1.632,0.251,2.222,1.908,1.905c1.357-0.26,2.742-0.366,4.114-0.55
	c1.63-0.218,3.358-0.305,4.106,1.464c0.748,1.769-0.189,3.303-1.539,4.45c-2.199,1.868-4.81,3.101-7.304,4.514
	c-3.912,2.217-6.744,5.25-8.231,9.678c-2.031,6.046-0.937,11.341,3.105,16.049c4.571,5.324,9.25,10.559,13.998,15.726
	c2.436,2.651,5.572,3.238,8.927,1.981c3.156-1.183,6.144-2.719,8.801-4.843c2.415-1.931,5.057-3.483,8.043-4.341
	c2.624-0.754,3.484-0.123,3.645,2.52c0.054,0.888,0.063,1.779,0.075,2.669c0.016,1.225,0.119,2.162,1.846,1.644
	c1.905-0.571,2.416,0.867,2.643,2.317c0.517,3.299-1.66,5.976-5.648,6.714c-4.485,0.829-9.045,0.867-13.594,0.959
	c-1.61,0.032-4.006-0.591-4.459,1.14c-0.418,1.595,2.011,2.059,3.33,2.798c2.274,1.275,4.005,2.793,5.3,5.281
	c1.494,2.87,4.761,4.32,7.319,6.311c1.794,1.396,3.663,2.699,5.423,4.136c2.908,2.376,3.175,5.099,0.991,8.991
	c-1.794,3.196-4.85,4.621-8,3.109c-4.422-2.123-9.109-3.155-13.795-4.343c-4.128-1.047-7.799-0.615-11.057,2.293
	c-0.805,0.719-1.68,1.438-2.648,1.884c-6.649,3.061-11.304,8.952-17.86,12.267c-4.843,2.448-9.759,3.536-15.016,3.988
	c-1.949,0.168-4.882-0.86-5.564,1.489c-0.641,2.208,1.649,4.064,3.327,5.518c3.953,3.425,8.196,6.497,12.155,9.932
	c2.881,2.499,4.301,5.418,4.831,9.143c0.626,4.396,1.14,8.81,1.841,13.189c0.603,3.763,2.804,6.923,4.806,10.103
	c2.504,3.977,2.117,4.997-2.336,6.064c-5.257,1.26-6.083,1.041-6.295-4.437c-0.432-11.157-6.54-19.846-11.667-29.009
	c-0.446-0.798-1.15-1.332-1.985-1.718c-7.173-3.316-14.122-7.048-20.642-11.524c-1.784-1.225-2.313-0.192-3.11,1.127
	c-4.92,8.146-7.486,17.113-9.358,26.335c-0.864,4.256-1.475,8.583-3.116,12.64c-0.736,1.819,0.31,2.982,1.218,4.289
	c1.665,2.398,1.328,3.171-1.526,3.732c-0.194,0.038-0.389,0.075-0.584,0.104c-6.96,1.025-7.394,0.606-6.173-6.112
	c2.474-13.605,4.213-27.294,4.868-41.115c0.253-5.347,0.232-5.455-5.263-4.728c-3.524,0.466-6.984,1.196-10.407,2.252
	c-4.573,1.411-9.225,0.743-13.732-0.525c-4.466-1.256-8.885-2.723-13.091-4.708c-1.48-0.699-2.408-0.683-3.53,0.701
	c-3.61,4.451-7.552,8.539-12.387,11.771c-3.2,2.139-3.641,4.657-1.624,7.955c4.788,7.83,9.688,15.595,15.326,22.86
	c1.979,2.55,3.336,5.405,3.649,8.617c0.334,3.438-1.693,4.795-4.953,3.71c-3.46-1.151-5.855-3.004-6.245-6.959
	c-0.551-5.589-4.989-8.766-8.271-12.616c-4.742-5.563-9.411-11.172-13.736-17.075c-1.794-2.448-1.569-4.463,0.256-6.645
	c1.467-1.754,2.672-3.689,3.214-5.948c0.106-0.442,0.117-1.061-0.117-1.394c-0.353-0.502-0.958-0.155-1.283,0.15
	c-6.256,5.868-14.197,10.412-16.077,19.787c-1.066,5.319,0.06,10.628,0.496,15.928c0.259,3.15,0.708,6.284,0.977,9.433
	c0.148,1.735,0.336,3.191,2.289,4.042c1.381,0.602,2.829,1.697,2.472,3.645c-0.363,1.981-2.225,1.614-3.545,2.076
	c-0.184,0.065-0.387,0.082-0.582,0.109c-7.33,1.025-7.235,1.011-8.296-6.231c-1.879-12.815-2.714-25.675-2.437-38.632
	c0.068-3.171,0.85-5.809,2.807-8.169c3.083-3.719,4.62-8.261,6.63-12.534c2.119-4.504,0.39-9.164-0.086-13.714
	c-0.74-7.079-1.733-14.125-0.437-21.234c0.188-1.031-0.011-1.691-1.232-1.854c-2.307-0.308-1.922-2.007-1.399-3.381
	c0.9-2.362,2.414-4.694,4.705-5.521c6.329-2.284,12.262-5.464,18.567-7.772c7.145-2.616,14.214-1.08,21.288,0.328
	c9.967,1.982,19.887,4.635,30.167,3.701c7.655-0.696,15.293-1.725,22.793-3.523c0.664-0.159,1.326-0.423,1.918-0.762
	c2.843-1.627,5.764-3.008,9.102-3.232C162.891,66.427,163.597,66.493,164.31,66.992z"/>
<g>
	<path fill="#D46B41" d="M732.832-22.02c-4.254-0.248-8.514-0.434-12.761-0.767c-2.482-0.194-4.998,0.101-7.449-0.52
		c1.069-0.656,2.237-0.1,3.342-0.318c-1.211,0.214-2.475-0.306-3.658,0.308c-3.411,0.042-6.788-0.335-10.163-0.776
		c-1.709-0.223-1.648-1.541-1.614-2.696c0.182-6.303,0.178-12.626,0.719-18.901c0.723-8.395,2.691-16.542,6.565-24.106
		c1.823-3.559,3.744-7.077,6.311-10.191c3.443-4.176,8.158-6.588,12.793-9.016c4.462-2.337,9.189-4.158,13.499-6.818
		c1.343-0.829,2.568-1.778,3.641-2.906c2.174-2.285,1.974-4.315-0.668-6.087c-2.725-1.829-5.737-3.198-8.847-4.126
		c-6.93-2.068-12.326-6.225-17.209-11.386c-2.955-3.123-6.184-5.998-8.732-9.479c-2.994-4.089-4.595-8.838-6.07-13.624
		c-0.631-0.702,0.006-1.65-0.463-2.384c-0.504-4.225-1.034-8.448-1.5-12.678c-0.184-1.675-0.225-3.366-0.332-5.049
		c-0.384-0.514-0.167-1.097-0.188-1.653c0.824-1.981,0.31-4.055,0.398-6.084c0.08-1.827,0.051-3.663-0.013-5.494
		c0.034-0.241,0.151-0.43,0.351-0.567c0.508,0.095,0.861-0.222,1.24-0.468c0.926-0.611,1.943-0.1,2.904-0.238
		c0.205,0,0.413,0,0.618,0c1.057,0.005,2.118-0.036,3.173,0.1c0.172-0.057,0.335-0.137,0.486-0.24
		c1.202-0.379,2.518,0.18,3.689-0.447c0.206-0.38,0.419-0.355,0.639-0.013c4.137-0.057,8.274-0.184,12.41-0.155
		c5.762,0.04,11.553,0.263,17.282,0.133c7.995-0.182,15.978,0.126,23.966-0.006c3.992-0.066,8.013-0.281,11.993,0.38
		c1.421-0.326,2.843-0.295,4.266-0.022c4.259,0.036,8.519,0.071,12.778,0.107c0.216-0.329,0.556-0.276,0.875-0.285
		c0.832,0.39,1.736,0.038,2.585,0.251c0.198,0.108,0.343,0.265,0.442,0.466c1.021,1.7,0.499,3.55,0.49,5.341
		c-0.012,2.406,0.252,4.828-0.342,7.207c-0.578-0.601-0.083-1.368-0.321-2.022c0.219,0.779-0.225,1.636,0.289,2.38
		c0.366,12.516-2.143,24.275-8.999,34.95c-3.674,5.72-8.002,10.809-13.269,15.133c-3.483,2.859-7.654,4.188-11.732,5.759
		c-2.91,1.121-5.857,2.18-8.465,3.919c-3.261,2.175-3.153,3.998,0.246,5.844c4.685,2.543,9.681,4.444,14.34,7.06
		c2.582,1.45,4.605,3.473,6.71,5.433c4.555,4.242,9.233,8.394,12.464,13.823c3.543,5.953,5.308,12.511,6.367,19.289
		c0.382,2.445,0.686,4.902,1.026,7.353c0.487,1.36-0.153,2.823,0.384,4.178c0.019,0.295,0.039,0.59,0.058,0.884
		c-0.162,0.158-0.326,0.169-0.493,0.01c-0.402-0.291-0.938-0.448-1.047-1.039c0.116,0.665,0.755,0.777,1.178,1.12
		c0.922,0.662,0.405,1.639,0.545,2.471c0.132,0.782-0.29,1.619,0.239,2.361c0.157,1.789,0.315,3.578,0.472,5.368
		c0.248,2.225,0.404,4.449-0.104,6.663c-7.197,1.952-14.595,2.214-21.975,2.562c-8.868,0.418-17.744,0.108-26.616,0.134
		c-1.186,0.378-2.376,0.334-3.567,0.03c-0.669-0.235-1.344-0.246-2.025-0.062c-3.51-0.423-7.035-0.063-10.55-0.195
		C734.566-21.851,733.672-21.614,732.832-22.02z"/>
	<path fill="#D46B41" d="M799.451-11.269c-4.253,0.554-8.54,0.547-12.811,0.614c-10.202,0.159-20.407,0.144-30.611,0.199
		c-0.498,0.635-1.216,0.495-1.859,0.462c-2.583-0.132-5.164-0.084-7.747-0.007c-0.532,0.016-1.035-0.097-1.415-0.52
		c-4.793-0.592-9.608-0.283-14.414-0.34c-1.401,1.229-3.052,0.294-4.568,0.528c-0.989,0.181-1.978,0.17-2.968,0.003
		c-2.186-0.167-4.453,0.502-6.546-0.631c-2.894-0.771-5.847-0.082-8.772-0.348c-2.333-0.212-4.701-0.024-7.054-0.014
		c-0.719,0.246-1.422,0.01-2.129-0.076c-2.279-0.887-2.225-2.894-2.29-4.824c-0.034-1.007,0.743-0.916,1.409-0.936
		c4.137-0.12,8.273-0.258,12.411-0.352c2.222-0.05,4.445-0.025,6.668-0.034c0.547,0.713,0.02,1.022-0.334,1.24
		c3.238-0.636,6.667-0.577,10.137-0.569c2.611,0.006,5.228,0.49,7.92-0.158c2.267-0.545,4.748-0.337,7.13,0.037
		c0.969,0.152,2.045,0.563,2.711-0.644c2.15-0.337,4.3-0.572,6.448,0.018c0.208,0.443,0.781,0.893,0.338,1.374
		c-0.488,0.529-1.095-0.013-1.622,0.043c2.208-0.177,4.143-1.694,6.435-1.454c5.085-0.654,10.193-0.22,15.29-0.341
		c9.527-0.226,19.064,0.186,28.586-0.41c1.042-0.029,2.079-0.617,3.127-0.028c2.35,0.542,1.712,2.41,1.71,3.952
		c-0.001,0.942-0.027,1.929-0.832,2.642c-2.993-0.004-5.968,0.372-9.275,0.303C796.378-11.386,797.932-11.918,799.451-11.269z"/>
	<path fill="#D46B41" d="M778.219-189.803c6.467,0.75,12.983,0.352,19.461,0.822c1.458,0.106,2.961-0.179,4.373,0.421
		c-0.07,0.112-0.164,0.19-0.282,0.234c0.109-0.057,0.201-0.134,0.27-0.237c1.741-0.236,2.462,0.45,2.142,2.239
		c-0.271,1.516,0.522,3.532-2.357,3.432c-5.005-0.174-10.018-0.122-15.027-0.135c-0.579-0.002-1.159,0.185-1.739,0.284
		c-1.341-0.165-2.678,0.557-4.021,0.015c-4.197-0.377-8.396-0.402-12.597-0.071c-0.569,0.604-1.145,0.166-1.718,0.011
		c-4.3-0.433-8.599-0.18-12.898,0.014c-0.768,0.327-1.526-0.075-2.29-0.033l-0.169-0.047l-0.16,0.071
		c-0.094,0.009-0.187,0.018-0.281,0.027c-0.752,0.036-1.503,0.032-2.255,0.004c-0.094-0.008-0.187-0.016-0.281-0.024
		c-6.032-0.712-12.084-0.101-18.127-0.223c-4.48-0.09-8.987-0.402-13.466,0.195c-0.431,0.008-0.857,0.27-1.293,0.023
		c-3.235-0.541-6.484-0.255-9.729-0.155c-2.076,0.064-4.169,0.02-6.221,0.279c-2.243,0.283-3.163-0.551-2.975-2.745
		c0.666-2.526,1.621-3.514,4.473-3.164c2.541,0.311,5.008-0.17,7.505,0.022c1.088,0.084,1.09,0.029,1.215,1.121
		c0.002,0.016,0.36,0.054,0.465-0.041c1.466-1.315,3.107-1.437,4.924-0.874c0.543,0.168,1.214,0.155,1.767,0.004
		c2.179-0.593,4.341-0.082,6.482,0.116c1.284,0.118,0.019-0.753,0.481-0.814c2.803-0.75,5.676-0.067,8.499-0.417
		c1.776-0.351,3.555-0.283,5.336-0.037c0.159-0.002,0.319-0.005,0.478-0.007c2.725-0.459,5.494,0.158,8.218-0.334
		c4.846,0.337,9.69-0.066,14.536-0.031c0.154-0.189,0.296-0.191,0.425,0.026c3.575-0.009,7.15-0.018,10.725-0.027
		C774.145-190.079,776.182-189.975,778.219-189.803z"/>
</g>
<g>
	<path fill="#60A9B3" d="M-1264.622-129.817c-2.953-4.719-5.821-9.494-8.698-14.261c-4.3-7.126-8.604-14.246-12.89-21.381
		c-1.851-3.085-3.702-6.174-5.543-9.264c-0.683-1.149-1.154-1.295-2.303-0.598c-7.366,4.488-14.746,8.953-22.196,13.29
		c-2.044,1.192-2.666,2.303-1.003,4.234c0.942,1.093,0.819,1.94-0.593,2.746c-3.815,2.171-7.535,4.512-11.303,6.768
		c-10.29,6.169-20.585,12.33-30.876,18.494c-0.396,0.24-0.998,0.739-1.239,0.344c-0.848-1.403-1.634-1.366-2.383-0.947
		c-0.038,0.019-0.08,0.042-0.118,0.066c-0.518,0.311-1.017,0.777-1.502,1.036c-4.154,2.213-4.173,2.279-1.823,6.287
		c0.716,1.215,0.655,1.889-0.636,2.586c-1.997,1.083-3.956,2.261-5.84,3.527c-0.504,0.339-0.918,0.523-1.29,0.523
		c-0.25,0-0.476-0.085-0.688-0.259l-4.653,2.002c0.527,0.857,0.405,1.385-0.49,1.879c-1.168,0.64-2.303,1.356-3.396,2.119
		c-0.876,0.608-1.625,0.692-2.115-0.349c-0.74-1.578-1.672-1.243-2.769-0.443c-0.57,0.41-1.206,0.739-1.818,1.088
		c-3.4,1.94-3.56,2.049-1.333,5.369c1.403,2.1,0.833,2.948-1.097,4.093c-4.573,2.713-9.136,5.435-13.695,8.176
		c-3.782,2.265-7.559,4.535-11.331,6.815c-3.424,2.067-6.848,4.135-10.267,6.207c-1.097,0.664-1.808,0.744-2.416-0.504
		c-1.399-2.878-2.769-0.429-4.078,0.089c-1.766,0.697-0.669,1.719-0.137,2.595c3.824,6.367,7.662,12.73,11.482,19.102
		c2.077,3.447,4.14,6.904,6.198,10.361c0.72,1.215,1.352,1.695,2.468,0.636c0.923-0.881,3.626-0.81,1.879-3.202
		c-0.871-1.187-0.673-1.804,0.622-2.496c2.068-1.107,4.022-2.435,6.038-3.645c10.088-6.052,20.185-12.089,30.254-18.165
		c0.184-0.113,0.358-0.212,0.523-0.297c0.73-0.367,1.276-0.377,1.893,0.692c0.843,1.465,1.38,3.909,2.859,4.008
		c1.493,0.104,3.104-1.549,4.662-2.43c0.066-0.042,0.127-0.099,0.198-0.127c1.356-0.589,2.086-1.361,0.937-2.812
		c-0.471-0.598-0.344-1.149,0.349-1.554c1.192-0.702,2.369-1.432,3.546-2.148c0.48,0.787,0.16,1.314,0.019,1.808
		c-6.042,21.353-12.113,42.701-18.127,64.064c-0.325,1.159-1.766,3.047-0.273,3.485c1.71,0.499,1.54-1.922,1.874-3.085
		c5.242-18.325,10.389-36.673,15.574-55.012c1.083-3.829,2.232-7.639,3.48-11.91c0.405,0.787,0.551,0.98,0.612,1.196
		c5.666,20.077,11.317,40.158,16.978,60.235c0.744,2.642,1.521,5.275,2.298,7.907c0.132,0.452,0.33,0.942,0.914,0.918
		c0.584-0.024,0.782-0.476,0.744-0.989c-0.033-0.462-0.132-0.928-0.259-1.38c-3.4-11.995-6.819-23.986-10.215-35.986
		c-3.038-10.714-6.042-21.438-9.099-32.147c-0.302-1.055-0.25-1.743,0.786-2.345c2.779-1.615,5.52-3.292,8.246-4.997
		c1.154-0.721,1.644-0.085,2.218,0.791c2.472,3.758,2.487,3.749,6.405,1.338c0.198-0.122,0.405-0.24,0.593-0.377
		c0.961-0.683,2.75-0.819,1.521-2.826c-0.433-0.706,0.631-1.154,1.192-1.493c2.016-1.215,4.088-2.327,6.104-3.537
		c11.689-7.036,23.388-14.053,35.02-21.179c1.94-1.187,2.976-0.998,3.834,1.097c0.443,1.074,0.989,2.1,2.614,1.111
		c7.63-4.658,15.301-9.25,23.006-13.78C-1263.543-127.618-1263.779-128.47-1264.622-129.817z M-1355.474-92.037l-0.278,0.005
		c0.099-0.019,0.198-0.042,0.301-0.066C-1355.46-92.08-1355.464-92.056-1355.474-92.037z"/>
	<path fill="#60A9B3" d="M-1357.353-140.089c-1.069-1.922-2.199-3.81-3.386-5.656c-0.414-0.641-0.641-1.969-1.761-1.432
		c-1.206,0.579-3.212,1.017-3.118,2.43c0.108,1.545-0.758,1.691-1.535,2.162c-12.612,7.639-25.238,15.254-37.851,22.898
		c-4.064,2.458-3.97,2.444-1.531,6.763c0.989,1.752,1.813,2.1,3.612,0.961c5.303-3.353,10.719-6.523,16.102-9.753
		c0.862-0.518,1.719-1.191,2.515,0.226c0.98,1.743,2.011,3.457,3.057,5.162c0.349,0.57,0.697,1.135,1.05,1.705l4.653-2.002
		c-0.217-0.174-0.419-0.443-0.626-0.81c-0.146-0.264-0.297-0.532-0.448-0.796c-1.045-1.856-2.138-3.688-3.315-5.458
		c-0.838-1.262-0.457-1.889,0.702-2.581c4.394-2.619,8.76-5.279,13.14-7.917c1.06-0.645,2.124-1.286,3.188-1.922
		c0.664-0.4,1.22-0.829,2.289-0.231c1.526,0.857,2.675-0.772,3.782-1.568C-1355.803-138.643-1356.985-139.43-1357.353-140.089z"/>
	<path fill="#60A9B3" d="M-1306.218-81.545c1.458-1.406,3.75-0.968,4.472-2.344c0.767-1.462-1.169-2.948-1.06-4.637
		c0.131-0.069,0.296-0.219,0.371-0.184c1.442,0.698,2.769,2.666,4.161,2.088c1.221-0.507,1.804-2.55,2.827-4.165
		c0.774,1.818-0.117,3.958,1.163,4.927c1.291,0.977,3.155-0.096,4.775-0.123c0.132,0.86-0.551,1.165-0.922,1.611
		c-2.3,2.762-2.313,2.749,0.537,5.232c0.286,0.249,0.553,0.52,1.197,1.128c-1.152,0-1.891,0.035-2.625-0.006
		c-3.246-0.181-3.244-0.189-3.433,3.219c-0.029,0.523,0.125,1.103-0.384,1.486c-0.103-0.007-0.205,0.017-0.241-0.021
		c-1.139-1.207-1.602-3.575-3.079-3.697c-1.308-0.108-2.759,1.511-4.416,2.533c-0.124-1.419,0.47-2.387,0.946-3.385
		c0.651-1.365,0.662-2.343-1.233-2.598C-1304.143-80.612-1305.072-81.131-1306.218-81.545z"/>
	<path fill="#60A9B3" d="M-1316.604-33.913c2.424,2.88,3.956,1.764,5.498-0.81c-0.178,2.922,0.486,4.714,4.06,3.862
		c-2.92,1.808-2.704,3.578-0.456,5.716c-3.094-1.203-4.527-0.286-4.503,3.099c-1.309-2.315-2.346-4.794-5.516-1.472
		c1.377-2.975,1.981-5.147-2.368-5.513C-1316.211-29.295-1315.215-30.722-1316.604-33.913z"/>
	<path fill="#60A9B3" d="M-1306.523-184.077c-3.361,1.385-3.361,1.385-2.475,5.147c-2.263-1.983-4.095-2.29-5.166,1.235
		c-0.044-3.372-1.365-4.632-4.768-3.533c2.938-1.974,3.122-3.711,0.1-5.575c2.618,0.225,4.939,0.42,4.283-3.194
		c1.525,0.421,1.403,2.41,2.536,2.38c0.958-0.025,1.895-0.89,2.926-1.428c0.469,1.29-1.09,2.292-0.478,3.346
		C-1309.007-184.738-1307.605-184.888-1306.523-184.077z"/>
	<path fill="#60A9B3" d="M-1393.907-172.052c-2.607,2.538-1.579,3.989,0.956,5.33c-2.489,0.202-4.501,0.679-3.426,4.119
		c-1.969-1.818-3.731-3.262-5.172,0.137c-0.986-1.568,0.312-2.82-0.305-3.741c-0.663-0.99-2.267-0.121-3.392-1.243
		c3.007-0.821,3.165-2.585,1.349-5.04c2.721,1.368,4.548,1.252,5.078-2.465C-1398.384-171.606-1397.048-170.432-1393.907-172.052z"
		/>
	<path fill="#60A9B3" d="M-1348.262-150.908c-2.412-3.081-2.412-3.081-5.649-1.825c1.81-2.66,1.094-4.185-2.105-4.724
		c3.043-0.558,3.872-2.001,2.541-4.768c2.153,1.468,4.155,2.915,5.223-1.469c-0.002,3.264,0.796,4.936,3.828,3.776
		c-0.191,1.552-2.037,1.706-1.861,2.766c0.142,0.86,1.127,1.58,2.196,2.949C-1347.025-155.106-1348.795-154.639-1348.262-150.908z"
		/>
	<path fill="#60A9B3" d="M-1398.245-22.51c1.155,2.058,2.362,3.019,4.861,0.567c-1.047,2.702-1.284,4.525,1.823,4.75
		c-2.218,0.782-3.826,1.688-1.619,4.619c-2.252-0.987-4.023-2.331-5.329,1.22c-0.083-2.996-0.859-4.335-3.975-3.122
		c1.835-1.91,3.142-3.377-0.145-5.152C-1399.859-19.418-1398.049-19.6-1398.245-22.51z"/>
	<path fill="#60A9B3" d="M-1325.807-49.179c0.385-1.708-0.263-2.471-2.142-2.647c1.499-0.8,2.243-1.583,1.452-2.71
		c3.483-1.733,5.042-0.019,5.708,3.106c-1.505,0.617-1.505,0.617-1.853,2.507C-1323.563-49.87-1324.516-50.797-1325.807-49.179z"/>
	<path fill="#60A9B3" d="M-1385.882-35.687c1.524,2.234-0.577,3.126-1.496,3.337c-1.383,0.317-3.021-0.591-3.146-2.283
		c-0.123-1.661,1.569-2.137,2.75-2.851C-1387.492-36.467-1385.866-36.722-1385.882-35.687z"/>
	<path fill="#60A9B3" d="M-1414.904-30.874c1.98,0.096,2.994,1.527,2.951,2.83c-0.048,1.463-1.748,2.27-3.175,2.108
		c-0.714-0.081-1.804-1.245-1.843-1.967C-1417.05-29.359-1415.966-30.418-1414.904-30.874z"/>
	<path fill="#60A9B3" d="M-1393.916-149.577c-1.414,0.399-2.412-1.083-2.473-1.633c-0.159-1.438,0.961-2.534,2.284-3.18
		c0.379-0.185,2.862,2.46,2.879,2.985C-1391.211-150.994-1393.192-149.684-1393.916-149.577z"/>
	<path fill="#60A9B3" d="M-1407.554-131.852c-0.032,1,1.659,0.735,1.697,1.69c0.054,1.37-0.498,3.03-1.876,3.215
		c-1.352,0.181-2.91-0.995-2.952-2.443C-1410.729-130.905-1409.327-131.758-1407.554-131.852z"/>
</g>
<path fill="#68844D" d="M582.123-85.675c-2.972,7.831-5.815,15.807-10.313,23.012c-6.723,10.763-19.494,11.944-28.089,2.514
	c-7.582-8.321-8.321-19.663-1.872-27.775c2.554-3.213,5.952-4.932,9.864-5.687c0.378-0.072,0.731-0.104,1.076-0.104
	c2.112,0,3.51,1.349,3.912,3.542c0.442,2.426-0.827,3.245-3.446,3.526c-3.703,0.41-5.582,3.446-6.41,6.884
	c-0.859,3.558,1.542,8.755,4.747,10.827c4.715,3.052,7.96,2.064,10.08-3.149c3.558-8.755,5.39-17.647,1.976-26.916l-2.016,0.016
	c0.024,1.912,0.112,3.855-1.984,4.562c-1.896,0.626-3.896-0.072-5.566-1.189c-0.747-0.498-1.43-1.076-2.016-1.663
	c-3.679-3.663-8.064-5.004-12.948-5.43c-0.016-0.008-0.032-0.008-0.032-0.008c-7.864-0.667-14.611-4.177-21.004-8.394
	c-1.205-0.795-1.871-0.924-2.578-0.53c-0.426,0.241-0.859,0.675-1.446,1.261c-6.683,6.731-4.787,14.57-3.759,22.506
	c1.084,8.426,3.647,16.41,6.345,24.378c2.803,8.273,3.309,16.458-0.594,24.579c-1.398,2.892-2.458,5.944-3.912,8.795
	c-1.301,2.57-2.161,4.795,0.418,7.205c1.084,1.02,1.815,2.61,0.538,4.313c-1.349,1.783-3.044,2.49-5.205,2.313
	c-2.803-0.217-4.876-2.088-7.293-3.189c-1.791-0.811-3.189-1.655-2.803,1.767c0.337,3.06-2.675,5.438-6.177,5.55
	c-7.076,0.225-14.161,0.337-21.237,0.57c-1.51,0.048-3.068,0.377-3.582-1.558c-0.57-2.129-2.104-4.747,0-6.354
	c3.534-2.699,3.366-5.751,2.739-9.598c-2.249-13.695-4.201-27.438-6.193-41.165c-1.333-9.189-1.245-8.908-10.177-7.952
	c-6.458,0.699-12.241,3.815-18.635,4.458c-9.374,0.948-18.715,0.297-28.016-0.811c-1.229-0.145-2.233-0.153-3.1,0.08
	c-1.446,0.386-2.514,1.406-3.647,3.47c-4.884,8.876-2.273,17.743-1.309,26.675c0.297,2.779,0.98,5.518,1.534,8.273
	c1.245,6.169,2.321,12.329,8.386,16.129c2.233,1.398,3.108,4,2.201,6.763c-0.996,3.052-3.695,2.217-5.791,2.217
	c-6.265,0-12.514,0.522-18.787,0.072c-2.45-0.177-4.747-0.594-7.012-1.494c-5.189-2.08-6.04-4.201-3.598-9.084
	c1.703-3.422,2.177-7.036,2.337-10.86c0.466-11.277-4.321-21.358-6.635-32.426c-1.108,0.819-2.177,1.655-3.197,2.514
	c-5.502,4.627-9.542,9.928-10.546,17.414c-0.795,5.944-1.791,11.872-2.771,17.791c-0.386,2.345,0.353,4.185,2.016,5.775
	c1.96,1.855,3.374,4.201,2.386,6.795c-0.948,2.514-3.743,2.699-6.121,3.125c-6.482,1.149-13.02,1.663-19.575,1.221
	c-5.687-0.386-7.317-3.358-5.221-8.755c1.847-4.787,2.281-9.872,2.996-14.892c0.908-6.337,1.663-12.683,3.952-18.771
	c2.964-7.88,1.783-16.064,1.293-24.201c-0.072-1.173-0.12-2.345-0.161-3.518c-0.394-11.51,0.61-23.012,1.004-34.515
	c0.048-1.341,0.008-2.675-0.233-4.08c-1.799,14.305-8.064,27.39-11.141,41.326c-1.285,5.831-1.012,11.976-3.534,17.599
	c-0.498,1.108-0.827,2.241-1.807,3.036c-1.173,0.956-2.554,0.956-3.775,0.37c-1.349-0.643-1.615-1.831-1.285-3.39
	c3.43-16.089,5.325-32.45,8.209-48.635c2.635-14.755,8.747-28.177,15.96-41.286c2.835-5.149,6.217-9.663,10.088-13.591
	c5.663-5.743,12.362-10.241,19.912-13.711c12.329-5.655,25.446-8.675,39.245-8.498c16.948,0.209,33.904-0.129,50.852-0.169
	c7.438-0.024,14.876,0.024,22.314,0.048c4.032,0.016,8.064,0.024,12.097,0.016c5.277-0.016,10.249-1.823,15.309-3.028
	c5.96-1.422,11.502-2.434,17.173,1.743c3.398,2.498,8.241,1.711,12.482,2.121c4.249,0.418,8.538,0.57,12.763,1.197
	c6.627,0.996,10.233,5.446,12.795,10.803c0.37,0.763,0.715,1.542,1.044,2.337c1.277,3.06,2.024,6.37,2.739,9.631
	c1.189,5.398,3.285,10.321,5.912,15.221c3.47,6.474,4.249,14.008,6.594,20.964c1.189,3.534,1.96,7.213,3.076,10.779
	C586.966-104.294,585.569-94.744,582.123-85.675z"/>
<path fill="#ABC3BD" d="M-34.119-36.26c-0.759-6.089-1.497-12.171-2.322-18.253c-2.042-15.069-4.305-30.115-6.148-45.206
	c-2.189-17.899-2.307-35.991-4.563-53.89c-0.804-6.34-1.747-12.658-4.202-18.615c-1.017-2.47-2.411-4.902-5.477-4.718
	c-5.994,0.354-11.965,1.032-17.951,1.6c-2.278,0.221-2.661,1.563-2.322,3.634c0.568,3.509,0.87,7.055,1.342,10.579
	c0.221,1.659,0.649,3.163-1.961,3.258c-2.411,0.096-3.354-0.767-3.281-3.163c0.096-2.941-0.221-5.912,0.007-8.839
	c0.288-3.686-1.239-4.696-4.725-4.305c-14.501,1.629-29.031,3.03-43.532,4.689c-6.141,0.7-6.119,0.892-7.092-5.271
	c-1.445-9.156-6.561-14.169-15.798-15.135c-2.529-0.265-5.131,0.037-7.689,0.258c-5.868,0.509-11.758,0.98-17.383,2.897
	c-5.153,1.762-6.878,4.143-6.981,9.525c-0.066,3.074-0.074,6.148,0.015,9.215c0.066,2.101-0.693,3.214-2.897,3.347
	c-3.185,0.192-6.355,0.501-9.532,0.811c-10.741,1.025-21.49,2.013-32.223,3.141c-5.013,0.523-5.109,0.663-4.777,5.588
	c0.28,4.158,0.885,8.294,1.305,12.444c0.184,1.865,0.516,3.767-2.389,3.9c-2.617,0.118-2.61-1.519-2.706-3.34
	c-0.236-4.526-0.472-9.068-0.87-13.587c-0.14-1.592-0.059-3.966-2.624-3.553c-5.264,0.855-10.564,0.17-15.813,0.737
	c-7.94,0.855-8.854,1.998-8.589,9.96c0.029,1.098,0.14,2.204,0.236,3.303c0.582,6.915,1.18,13.83,1.769,20.745
	c0.553,6.524,1.106,13.049,1.622,19.58c0.892,11.25,1.43,22.529,2.507,33.764c0.243,2.565,0.509,5.131,0.781,7.696
	c1.578,14.995,3.472,29.968,4.608,44.992c0.501,6.672,4.084,9.171,10.83,8.367c3.892-0.464,7.8-0.907,11.714-1.15
	c5.271-0.324,5.264-0.243,5.042-5.323c-0.066-1.592-0.015-3.192-0.015-4.784h-0.184c0-2.462-0.015-4.917,0-7.372
	c0.015-1.364-0.089-2.86,1.843-3.015c1.858-0.155,2.285,1.231,2.44,2.602c0.405,3.539,0.774,7.077,0.995,10.623
	c0.369,5.809,0.863,6.222,6.627,5.625c9.392-0.966,18.784-1.917,28.191-2.765c17.59-1.57,35.187-3.052,52.784-4.593
	c21.866-1.909,43.731-3.87,65.604-5.721c2.042-0.17,2.831-0.627,2.484-2.846c-0.826-5.33-1.474-10.69-2.108-16.042
	c-0.155-1.327-1.062-3.391,1.032-3.627c1.806-0.199,1.467,1.88,1.607,3.133c0.575,5.116,1.084,10.247,1.644,15.363
	c0.177,1.644,0.464,3.399,2.683,3.207c8.072-0.7,16.174-1.297,23.694-4.755C-34.893-32.449-33.839-34.004-34.119-36.26z
	 M-173.871-169.739c0.059-6.229,1.025-7.468,7.085-8.308c4.593-0.634,9.23-1.069,13.86-1.297c4.799-0.229,8.036,3.583,7.446,8.323
	c-0.14,1.165-0.73,1.747-1.85,1.902c-8.109,1.098-16.211,2.3-24.343,3.258C-175.405-165.419-173.142-168.618-173.871-169.739z
	 M-70.95-142.956c-0.45,0.833-1.297,1.482-2.16,2.138c1.312-1.843-3.531-3.458-0.103-5.205c0.863-0.435,2.049-0.391,2.418,0.804
	C-70.507-144.313-70.618-143.583-70.95-142.956z"/>
</svg>
