<?xml version="1.0" encoding="utf-8"?>
<!-- Generator: Adobe Illustrator 17.0.0, SVG Export Plug-In . SVG Version: 6.00 Build 0)  -->
<!DOCTYPE svg PUBLIC "-//W3C//DTD SVG 1.1//EN" "http://www.w3.org/Graphics/SVG/1.1/DTD/svg11.dtd">
<svg version="1.1" id="Layer_1" xmlns="http://www.w3.org/2000/svg" xmlns:xlink="http://www.w3.org/1999/xlink" x="0px" y="0px"
	 width="88.334px" height="18.771px" viewBox="0 0 88.334 18.771" enable-background="new 0 0 88.334 18.771" xml:space="preserve">
<g>
	<path fill="#301E0F" d="M39.646,13.793c-0.283-0.114-0.58-0.186-0.869-0.282c-0.011-0.004-0.021-0.008-0.042-0.017
		c0.149-0.151,0.29-0.303,0.441-0.444c0.511-0.479,1.06-0.911,1.644-1.296c0.016-0.01,0.029-0.025,0.044-0.037
		c0.548-0.34,1.107-0.661,1.697-0.923c0.025-0.011,0.045-0.025,0.051-0.058c0.045-0.285,0.227-0.48,0.442-0.648
		c0.425-0.333,0.907-0.558,1.423-0.701c0.495-0.137,0.865,0.001,1.097,0.38c0.123,0.201,0.091,0.289-0.137,0.356
		c-0.705,0.21-1.391,0.468-2.047,0.802c-0.804,0.41-1.541,0.917-2.205,1.529c-0.398,0.343-0.759,0.724-1.12,1.105
		c-0.075,0.08-0.155,0.156-0.232,0.234C39.771,13.793,39.709,13.793,39.646,13.793z"/>
	<path fill="#81B6BF" d="M41.185,12.453c0.664-0.612,1.401-1.119,2.205-1.529c0.656-0.334,1.342-0.592,2.047-0.802
		c0.227-0.068,0.26-0.155,0.137-0.356c-0.232-0.379-0.602-0.517-1.097-0.38c-0.517,0.143-0.998,0.368-1.423,0.701
		c-0.215,0.168-0.397,0.363-0.442,0.648c-0.005,0.032-0.025,0.046-0.051,0.058c-0.591,0.262-1.149,0.583-1.697,0.923
		c-0.008-0.275,0.074-0.537,0.122-0.803c0.196-1.075,0.4-2.148,0.602-3.222c0.106-0.564,0.217-1.126,0.319-1.69
		c0.015-0.082,0.049-0.1,0.122-0.099c0.179,0.003,0.357-0.001,0.536-0.002c0.038,0.122,0.072,0.246,0.129,0.361
		c0.196,0.398,0.506,0.686,0.876,0.914c0.574,0.354,1.206,0.53,1.872,0.59c0.287,0.026,0.574,0.037,0.861,0.002
		c0.039-0.005,0.083-0.008,0.1-0.049c0.019-0.046-0.028-0.067-0.053-0.093c-0.128-0.135-0.136-0.187-0.047-0.362
		c0.024-0.048,0.039-0.094,0.001-0.141c-0.035-0.043-0.081-0.041-0.128-0.028c-0.453,0.123-0.909,0.105-1.363,0.016
		c-0.472-0.093-0.927-0.236-1.327-0.515c-0.247-0.173-0.452-0.381-0.534-0.683C43,5.909,43.047,5.904,43.093,5.904
		c1.315,0,2.631,0.001,3.946-0.003c0.106,0,0.146,0.027,0.165,0.134c0.17,0.931,0.347,1.861,0.523,2.791
		c0.07,0.37,0.14,0.739,0.21,1.109c-0.628,0.051-1.251,0.133-1.865,0.283c-1.016,0.248-1.988,0.612-2.914,1.099
		c-0.136,0.072-0.143,0.124-0.04,0.241c0.184,0.209,0.42,0.289,0.69,0.272c0.636-0.04,1.218-0.27,1.784-0.539
		c0.182-0.087,0.282-0.256,0.297-0.46c0.006-0.081,0.041-0.103,0.109-0.117c0.688-0.135,1.381-0.154,2.077-0.076
		c0.051,0.286,0.103,0.572,0.152,0.859c0.08,0.463-0.154,0.946-0.603,1.113c-0.942,0.352-1.879,0.72-2.817,1.085
		c-0.218,0.085-0.429,0.081-0.645-0.007c-0.908-0.367-1.817-0.73-2.726-1.093C41.347,12.56,41.272,12.497,41.185,12.453z
		 M45.32,9.094c0.419-0.05,0.858-0.102,1.297-0.156c0.088-0.011,0.134-0.072,0.153-0.155c0.021-0.095,0.042-0.189,0.062-0.284
		c0.032-0.156-0.033-0.244-0.194-0.266c-0.438-0.06-0.876-0.121-1.315-0.181c-0.188-0.026-0.377-0.053-0.566-0.074
		c-0.124-0.014-0.145,0.009-0.135,0.134c0.012,0.137,0.071,0.26,0.197,0.309c0.135,0.053,0.153,0.139,0.14,0.26
		c-0.005,0.042,0,0.086,0.007,0.127C44.994,8.975,45.131,9.091,45.32,9.094z"/>
	<path fill="#301E0F" d="M48.076,10.64c-0.696-0.077-1.389-0.059-2.077,0.076c-0.068,0.013-0.103,0.036-0.109,0.117
		c-0.015,0.204-0.114,0.373-0.297,0.46c-0.567,0.269-1.148,0.499-1.784,0.539c-0.27,0.017-0.506-0.062-0.69-0.272
		c-0.103-0.117-0.096-0.169,0.04-0.241c0.926-0.487,1.898-0.851,2.914-1.099c0.613-0.15,1.237-0.233,1.865-0.283
		c0.352-0.02,0.705-0.034,1.058-0.032c0.311,0.002,0.62,0.017,0.93,0.037c0.076,0.005,0.106,0.015,0.068,0.101
		c-0.091,0.205-0.172,0.414-0.258,0.622c-0.066,0.158-0.149,0.215-0.317,0.188c-0.341-0.054-0.68-0.118-1.02-0.175
		C48.293,10.659,48.184,10.652,48.076,10.64z"/>
	<path fill="#301E0F" d="M42.954,5.912c0.082,0.303,0.287,0.511,0.534,0.683c0.4,0.28,0.855,0.423,1.327,0.515
		c0.454,0.089,0.91,0.107,1.363-0.016c0.047-0.013,0.094-0.014,0.128,0.028c0.038,0.047,0.024,0.092-0.001,0.141
		c-0.089,0.175-0.081,0.227,0.047,0.362c0.025,0.026,0.072,0.046,0.053,0.093c-0.017,0.04-0.061,0.044-0.1,0.049
		c-0.287,0.035-0.575,0.024-0.861-0.002c-0.667-0.06-1.299-0.236-1.872-0.59c-0.37-0.228-0.681-0.516-0.876-0.914
		c-0.057-0.116-0.091-0.239-0.129-0.361c-0.113-0.916,0.356-1.516,1.087-1.96c0.462-0.281,0.978-0.389,1.517-0.388
		c0.036,0,0.089-0.017,0.103,0.029c0.016,0.053-0.045,0.054-0.075,0.072C45.1,3.71,44.995,3.756,44.916,3.838
		c-0.08,0.083-0.07,0.144,0.037,0.183c0.087,0.031,0.181,0.043,0.271,0.067c0.047,0.013,0.108,0.019,0.114,0.082
		c0.006,0.059-0.054,0.07-0.093,0.09c-0.114,0.057-0.238,0.096-0.344,0.17c-0.118,0.084-0.118,0.15-0.002,0.235
		c0.038,0.027,0.077,0.052,0.115,0.08C45.05,4.77,45.087,4.8,45.066,4.85c-0.02,0.045-0.063,0.034-0.102,0.03
		c-0.135-0.014-0.27-0.034-0.406-0.04c-0.42-0.017-0.832,0.023-1.212,0.222C42.994,5.247,42.851,5.565,42.954,5.912z"/>
	<path fill="#301E0F" d="M45.32,9.094c-0.189-0.003-0.326-0.119-0.353-0.286c-0.007-0.042-0.012-0.086-0.007-0.127
		c0.013-0.12-0.005-0.207-0.14-0.26c-0.126-0.05-0.185-0.173-0.197-0.309c-0.011-0.125,0.011-0.148,0.135-0.134
		c0.189,0.021,0.377,0.048,0.566,0.074c0.438,0.06,0.876,0.121,1.315,0.181c0.161,0.022,0.225,0.11,0.194,0.266
		c-0.019,0.095-0.04,0.19-0.062,0.284c-0.019,0.083-0.065,0.144-0.153,0.155C46.178,8.992,45.739,9.044,45.32,9.094z"/>
</g>
<g>
	<path fill="#301E0F" d="M27.367,10.995c-0.275,0.001-0.604-0.019-0.927-0.097c-0.133-0.032-0.266-0.068-0.37-0.161
		c-0.05-0.045-0.075-0.009-0.108,0.012c-0.372,0.242-0.77,0.42-1.212,0.486c-0.311,0.047-0.62,0.03-0.924-0.055
		c-0.272-0.076-0.465-0.241-0.581-0.498c-0.035-0.078-0.067-0.158-0.123-0.224c-0.121-0.142-0.317-0.129-0.376,0.04
		c-0.124,0.355-0.338,0.613-0.696,0.749c-0.416,0.159-0.827,0.145-1.24-0.012c-0.555-0.211-0.906-0.624-1.15-1.146
		c-0.112-0.24-0.206-0.486-0.265-0.744c-0.017-0.073-0.04-0.117-0.128-0.105c-0.104,0.014-0.209,0.016-0.314,0.024
		c-0.144,0.012-0.226,0.094-0.282,0.224c-0.165,0.383-0.357,0.751-0.655,1.052c-0.42,0.424-0.925,0.664-1.525,0.676
		c-0.268,0.005-0.523-0.069-0.759-0.197c-0.063-0.034-0.115-0.037-0.184-0.016c-0.456,0.136-0.918,0.206-1.39,0.079
		c-0.206-0.055-0.39-0.154-0.543-0.303c-0.036-0.035-0.061-0.059-0.116-0.023c-0.505,0.326-1.071,0.47-1.66,0.53
		c-0.535,0.054-1.072,0.069-1.603-0.041c-0.49-0.102-0.934-0.302-1.267-0.689C8.49,10.002,8.447,9.371,8.688,8.708
		c0.212-0.585,0.6-1.05,1.061-1.455c0.911-0.8,1.967-1.296,3.169-1.463c0.445-0.062,0.893-0.073,1.322,0.101
		c0.402,0.164,0.521,0.478,0.326,0.867c-0.141,0.283-0.352,0.511-0.596,0.708c-0.136,0.11-0.288,0.102-0.443,0.054
		c-0.103-0.032-0.142-0.114-0.146-0.216c-0.004-0.102,0.022-0.201,0.042-0.299c0.009-0.046,0.023-0.091,0.031-0.136
		c0.056-0.287-0.046-0.413-0.338-0.383c-0.433,0.044-0.843,0.18-1.232,0.371c-0.779,0.383-1.361,0.959-1.683,1.776
		c-0.079,0.199-0.125,0.408-0.125,0.625c0,0.419,0.168,0.667,0.562,0.82c0.333,0.129,0.681,0.155,1.033,0.136
		c0.519-0.027,1.025-0.123,1.516-0.298c0.078-0.028,0.111-0.067,0.127-0.151c0.119-0.608,0.631-1.093,1.263-1.202
		c0.149-0.026,0.298-0.053,0.451-0.036c0.118,0.013,0.229,0.047,0.325,0.117c0.166,0.12,0.336,0.126,0.515,0.036
		c0.141-0.071,0.287-0.084,0.442-0.048c0.165,0.038,0.266,0.134,0.306,0.298c0.075,0.306,0.009,0.603-0.057,0.899
		c-0.037,0.167-0.081,0.332-0.137,0.493c-0.035,0.102,0.004,0.117,0.088,0.121c0.224,0.012,0.422-0.055,0.598-0.19
		c0.314-0.239,0.499-0.568,0.646-0.925c0.024-0.058-0.007-0.073-0.052-0.09c-0.108-0.042-0.217-0.086-0.312-0.155
		c-0.125-0.091-0.149-0.19-0.051-0.307c0.204-0.243,0.437-0.454,0.722-0.599c0.147-0.075,0.299-0.074,0.451-0.009
		c0.138,0.059,0.264,0.141,0.351,0.262c0.068,0.094,0.129,0.107,0.24,0.074c0.346-0.102,0.695-0.198,1.058-0.223
		c0.066-0.005,0.132-0.004,0.198,0.001c0.205,0.015,0.3,0.11,0.293,0.314c-0.009,0.272-0.024,0.544-0.018,0.816
		c0.005,0.215,0.032,0.427,0.118,0.626c0.079,0.182,0.206,0.315,0.387,0.402c0.125,0.06,0.233,0.042,0.336-0.039
		c0.121-0.095,0.215-0.213,0.303-0.338c0.165-0.236,0.326-0.474,0.492-0.709c0.09-0.127,0.193-0.245,0.315-0.343
		c0.288-0.232,0.606-0.182,0.811,0.126c0.134,0.202,0.203,0.435,0.294,0.657c0.049,0.119,0.099,0.237,0.172,0.343
		c0.173,0.251,0.405,0.305,0.667,0.149c0.245-0.145,0.431-0.356,0.608-0.573c0.465-0.571,0.851-1.197,1.266-1.803
		c0.297-0.433,0.586-0.872,0.964-1.242c0.158-0.155,0.331-0.281,0.562-0.306c0.253-0.027,0.373,0.118,0.276,0.355
		c-0.137,0.334-0.286,0.663-0.432,0.993c-0.062,0.142-0.128,0.283-0.192,0.424c-0.062,0.137-0.024,0.2,0.126,0.197
		c0.3-0.006,0.598,0.011,0.894,0.066c0.199,0.037,0.393,0.093,0.574,0.185c0.451,0.228,0.63,0.615,0.535,1.113
		c-0.113,0.594-0.519,0.905-1.04,1.109C28.271,10.96,27.851,11.005,27.367,10.995z M27.239,10.161c0.45-0.02,0.855-0.168,1.208-0.45
		c0.033-0.026,0.058-0.063,0.082-0.098c0.193-0.276,0.1-0.535-0.227-0.608c-0.431-0.096-0.831,0.007-1.208,0.218
		c-0.157,0.088-0.299,0.197-0.397,0.353c-0.11,0.175-0.082,0.311,0.084,0.433C26.916,10.109,27.071,10.152,27.239,10.161z
		 M15.587,9.935c0.003-0.186-0.055-0.322-0.205-0.419c-0.293-0.19-0.612-0.163-0.87,0.085c-0.205,0.197-0.218,0.392-0.028,0.601
		c0.226,0.248,0.513,0.298,0.83,0.238c0.114-0.022,0.182-0.086,0.214-0.201C15.557,10.133,15.579,10.028,15.587,9.935z"/>
	<path fill="#301E0F" d="M38.266,9.254c-0.017,0.285,0.008,0.55,0.104,0.805c0.083,0.218,0.158,0.249,0.374,0.167
		c0.069-0.026,0.138-0.053,0.205-0.082c0.064-0.027,0.13-0.029,0.195-0.017c0.18,0.034,0.22,0.148,0.107,0.29
		c-0.321,0.402-1.032,0.59-1.474,0.385c-0.081-0.038-0.163-0.133-0.232-0.122c-0.067,0.011-0.122,0.12-0.194,0.174
		c-0.266,0.201-0.573,0.293-0.899,0.32c-0.344,0.029-0.683-0.018-1.014-0.116c-0.488-0.145-0.686-0.396-0.722-0.907
		c-0.013-0.19-0.022-0.381-0.045-0.569c-0.023-0.18-0.126-0.248-0.295-0.196c-0.278,0.086-0.494,0.273-0.704,0.465
		c-0.02,0.019-0.025,0.056-0.034,0.085c-0.112,0.341-0.272,0.656-0.539,0.9c-0.514,0.469-1.102,0.553-1.743,0.301
		c-0.137-0.054-0.272-0.114-0.406-0.176c-0.209-0.098-0.414-0.085-0.617,0.017c-0.059,0.03-0.118,0.059-0.177,0.089
		c-0.244,0.126-0.521,0.062-0.683-0.157c-0.06-0.082-0.058-0.157,0.022-0.225c0.015-0.013,0.029-0.027,0.045-0.037
		c0.295-0.158,0.434-0.421,0.53-0.731c0.151-0.489,0.393-0.934,0.801-1.261c0.44-0.352,0.937-0.55,1.511-0.493
		c0.396,0.039,0.709,0.237,0.953,0.548c0.139,0.177,0.177,0.185,0.376,0.069c0.368-0.213,0.747-0.398,1.173-0.464
		c0.32-0.049,0.496,0.062,0.577,0.376c0.07,0.269,0.067,0.547,0.094,0.822c0.013,0.136,0.03,0.27,0.068,0.402
		c0.128,0.446,0.614,0.577,0.955,0.258c0.113-0.106,0.183-0.239,0.242-0.381c0.104-0.251,0.163-0.518,0.28-0.764
		c0.187-0.395,0.523-0.567,0.909-0.47c0.157,0.039,0.235,0.13,0.259,0.291C38.292,8.99,38.268,9.129,38.266,9.254z M31.191,9.771
		c0.004,0.125,0.041,0.303,0.127,0.467c0.113,0.218,0.306,0.31,0.535,0.229c0.379-0.134,0.657-0.389,0.773-0.781
		c0.135-0.456-0.196-0.87-0.648-0.832C31.522,8.892,31.19,9.254,31.191,9.771z"/>
	<path fill="#301E0F" d="M23.767,7.888c0.004,0.31-0.164,0.48-0.526,0.532c-0.031,0.004-0.062,0.006-0.093,0.01
		c-0.482,0.062-0.808-0.217-0.822-0.703c-0.005-0.177,0.071-0.31,0.225-0.391c0.303-0.161,0.611-0.162,0.913,0.001
		C23.681,7.453,23.767,7.648,23.767,7.888z"/>
</g>
<g>
	<path fill="#81B6BF" d="M80.545,10.803c-0.254-0.019-0.254-0.019-0.254-0.278c0-0.119,0-0.238,0-0.379
		c-0.108,0.122-0.204,0.226-0.295,0.334c-0.06,0.071-0.102,0.088-0.169,0c-0.09-0.119-0.197-0.226-0.305-0.348
		c0.025,0.204,0.009,0.394,0.014,0.584c0.003,0.104-0.072,0.083-0.13,0.081c-0.051-0.002-0.125,0.03-0.124-0.071
		c0.001-0.396,0.001-0.792,0.001-1.22c0.076,0.078,0.135,0.136,0.191,0.197c0.12,0.132,0.243,0.262,0.357,0.399
		c0.062,0.074,0.102,0.082,0.169,0.003c0.145-0.172,0.299-0.337,0.451-0.503c0.028-0.031,0.051-0.07,0.095-0.083
		C80.545,9.947,80.545,10.375,80.545,10.803z"/>
	<path fill="#81B6BF" d="M57.563,7.694c0.835-0.026,1.606,0.673,1.602,1.595c-0.004,0.877-0.677,1.593-1.592,1.596
		c-0.977,0.003-1.608-0.796-1.602-1.611C55.977,8.401,56.708,7.674,57.563,7.694z M58.478,9.284
		c-0.001-0.518-0.401-0.914-0.919-0.912c-0.502,0.002-0.909,0.413-0.908,0.918c0.001,0.51,0.409,0.912,0.925,0.911
		C58.083,10.198,58.479,9.797,58.478,9.284z"/>
	<path fill="#81B6BF" d="M70.296,9.28c0-0.467,0.002-0.934-0.002-1.4c-0.001-0.093,0.027-0.118,0.118-0.117
		c0.618,0.004,1.237,0.004,1.856,0c0.101-0.001,0.126,0.032,0.121,0.126c-0.007,0.144-0.007,0.288,0,0.432
		c0.004,0.092-0.026,0.122-0.119,0.121c-0.385-0.005-0.77,0.002-1.155-0.005c-0.106-0.002-0.136,0.031-0.128,0.132
		c0.008,0.093,0.007,0.187,0,0.28c-0.007,0.086,0.021,0.113,0.11,0.112c0.389-0.005,0.778,0.001,1.167-0.004
		c0.094-0.001,0.132,0.02,0.125,0.121c-0.009,0.128-0.007,0.257-0.001,0.385c0.004,0.082-0.024,0.106-0.105,0.105
		c-0.393-0.004-0.786,0.001-1.179-0.004c-0.091-0.001-0.125,0.022-0.118,0.116c0.008,0.112,0.008,0.226,0,0.338
		c-0.007,0.1,0.02,0.134,0.127,0.132c0.385-0.007,0.77,0,1.155-0.005c0.088-0.001,0.125,0.019,0.12,0.115
		c-0.008,0.147-0.005,0.296-0.001,0.443c0.002,0.071-0.014,0.104-0.096,0.104c-0.634-0.003-1.268-0.003-1.902,0
		c-0.095,0.001-0.096-0.047-0.095-0.116C70.297,10.221,70.296,9.751,70.296,9.28z"/>
	<path fill="#81B6BF" d="M75.035,9.283c0-0.467,0.002-0.934-0.002-1.401c-0.001-0.09,0.021-0.12,0.116-0.119
		c0.619,0.004,1.238,0.004,1.857,0c0.089-0.001,0.114,0.027,0.11,0.113c-0.006,0.152-0.007,0.304,0,0.455
		c0.004,0.091-0.029,0.111-0.114,0.11c-0.389-0.004-0.778,0.001-1.168-0.004c-0.097-0.001-0.132,0.026-0.124,0.124
		c0.008,0.089,0.008,0.179,0,0.268c-0.009,0.099,0.018,0.134,0.126,0.132c0.385-0.007,0.771,0,1.156-0.005
		c0.097-0.001,0.13,0.024,0.123,0.123c-0.008,0.128-0.007,0.257,0,0.385c0.004,0.084-0.027,0.104-0.107,0.103
		c-0.393-0.004-0.786,0.001-1.179-0.003c-0.088-0.001-0.126,0.018-0.119,0.115c0.009,0.12,0.008,0.242,0,0.362
		c-0.006,0.092,0.03,0.11,0.114,0.109c0.389-0.004,0.778,0.001,1.168-0.004c0.097-0.001,0.13,0.025,0.124,0.123
		c-0.008,0.14-0.007,0.28,0,0.42c0.004,0.088-0.018,0.121-0.115,0.12c-0.619-0.004-1.238-0.004-1.857,0
		c-0.088,0.001-0.112-0.025-0.111-0.112C75.037,10.224,75.035,9.753,75.035,9.283z"/>
	<path fill="#81B6BF" d="M52.781,7.693c0.503,0.009,0.914,0.208,1.235,0.599c0.048,0.059,0.048,0.094-0.01,0.143
		c-0.128,0.108-0.255,0.217-0.374,0.333c-0.06,0.058-0.081,0.035-0.12-0.019c-0.227-0.31-0.542-0.433-0.91-0.367
		c-0.365,0.066-0.61,0.296-0.72,0.655c-0.128,0.42,0.078,0.877,0.479,1.078c0.388,0.195,0.886,0.077,1.138-0.277
		c0.054-0.076,0.085-0.084,0.153-0.016c0.113,0.112,0.235,0.215,0.357,0.318c0.053,0.044,0.059,0.079,0.014,0.135
		c-0.272,0.336-0.62,0.541-1.047,0.596c-0.481,0.062-0.907-0.072-1.272-0.393c-0.283-0.248-0.453-0.562-0.513-0.93
		c-0.136-0.834,0.387-1.616,1.208-1.817C52.523,7.701,52.65,7.687,52.781,7.693z"/>
	<path fill="#81B6BF" d="M61.234,9.284c0-0.463,0.003-0.926-0.002-1.389c-0.001-0.097,0.016-0.135,0.126-0.134
		c0.58,0.006,1.159,0.005,1.739,0.001c0.094-0.001,0.121,0.027,0.116,0.118c-0.007,0.136-0.009,0.273,0,0.408
		c0.008,0.116-0.024,0.156-0.147,0.153c-0.338-0.009-0.677,0-1.015-0.005c-0.093-0.001-0.135,0.019-0.127,0.121
		c0.009,0.1,0.006,0.202,0,0.303c-0.004,0.077,0.023,0.1,0.099,0.099c0.358-0.003,0.716,0.002,1.074-0.004
		c0.096-0.002,0.12,0.03,0.115,0.119c-0.007,0.12-0.008,0.242,0,0.362c0.007,0.1-0.02,0.134-0.127,0.132
		c-0.35-0.007-0.7,0-1.05-0.005c-0.087-0.001-0.113,0.023-0.112,0.111c0.005,0.342,0,0.685,0.004,1.027
		c0.001,0.081-0.022,0.109-0.105,0.106c-0.155-0.006-0.311-0.007-0.467,0c-0.096,0.005-0.126-0.023-0.125-0.122
		C61.237,10.218,61.234,9.751,61.234,9.284z"/>
	<path fill="#81B6BF" d="M65.757,9.275c0-0.467,0.002-0.934-0.002-1.401c-0.001-0.086,0.022-0.113,0.111-0.112
		c0.584,0.004,1.167,0.003,1.751,0c0.08,0,0.11,0.019,0.106,0.103c-0.006,0.151-0.007,0.304,0,0.455
		c0.004,0.089-0.02,0.121-0.115,0.12c-0.354-0.006-0.708,0-1.062-0.004c-0.085-0.001-0.12,0.02-0.113,0.11
		c0.007,0.105,0.006,0.21,0,0.315c-0.005,0.079,0.026,0.098,0.101,0.097c0.358-0.003,0.716,0.002,1.074-0.004
		c0.093-0.001,0.121,0.025,0.116,0.117c-0.008,0.132-0.006,0.265,0,0.397c0.004,0.079-0.025,0.098-0.1,0.097
		c-0.358-0.003-0.716,0.002-1.074-0.004c-0.093-0.001-0.118,0.025-0.117,0.117c0.005,0.338-0.001,0.677,0.004,1.015
		c0.001,0.087-0.023,0.116-0.111,0.112c-0.151-0.007-0.304-0.008-0.455,0c-0.097,0.005-0.115-0.033-0.115-0.12
		C65.759,10.217,65.757,9.746,65.757,9.275z"/>
	<path fill="#81B6BF" d="M78.471,10.289c0-0.144-0.002-0.288,0.001-0.431c0.001-0.064-0.021-0.093-0.087-0.089
		c-0.05,0.004-0.102-0.004-0.151,0.002c-0.092,0.011-0.12-0.023-0.119-0.116c0.001-0.091,0.025-0.12,0.118-0.118
		c0.252,0.006,0.505,0.006,0.758,0c0.092-0.002,0.112,0.031,0.108,0.114c-0.003,0.073-0.001,0.122-0.102,0.121
		c-0.253-0.002-0.253,0.003-0.253,0.255c0,0.218-0.006,0.435,0.002,0.653c0.004,0.104-0.037,0.122-0.128,0.119
		c-0.09-0.003-0.16,0.001-0.149-0.126C78.48,10.547,78.471,10.418,78.471,10.289z"/>
</g>
</svg>
